<?xml version="1.0" standalone="no"?>
<!DOCTYPE svg PUBLIC "-//W3C//DTD SVG 1.1//EN" "http://www.w3.org/Graphics/SVG/1.1/DTD/svg11.dtd" >
<svg xmlns="http://www.w3.org/2000/svg" xmlns:xlink="http://www.w3.org/1999/xlink" version="1.1">
<metadata>
Created by FontForge 20170731 at Sat May  1 21:07:33 2010
 By Aleksey,,,
(c) 2010 Klim Type Foundry. All rights reserved.
</metadata>
<defs>
<font id="FoundersGrotesk-Light" horiz-adv-x="500" >
  <font-face 
    font-family="Founders Grotesk Light"
    font-weight="300"
    font-stretch="normal"
    units-per-em="1000"
    panose-1="2 11 3 3 3 2 2 6 2 3"
    ascent="630"
    descent="-370"
    x-height="434"
    cap-height="630"
    bbox="-70 -186 1091 924"
    underline-thickness="40"
    underline-position="-150"
    unicode-range="U+0020-FB04"
  />
<missing-glyph horiz-adv-x="608" 
 />
    <glyph glyph-name="ff" unicode="ff" horiz-adv-x="529" 
d="M333 389h-195v-389h-61v389h-67v45h67v56q0 64 37.5 103t96.5 39q55 0 102 -32l-20 -42q-37 27 -78 27q-77 0 -77 -95v-56h195v61q0 66 35.5 106.5t100.5 40.5q54 0 84.5 -23.5t45.5 -72.5l-45 -17q-9 31 -31 49.5t-54 18.5q-75 0 -75 -94v-69h125v-45h-125v-389h-61v389
z" />
    <glyph glyph-name="fi" unicode="fi" horiz-adv-x="454" 
d="M77 389h-67v45h67v39q0 78 41 123.5t116 45.5q61 0 96.5 -26t53.5 -79l-52 -19q-23 75 -98 75q-45 0 -70.5 -28.5t-25.5 -82.5v-48h256v-434h-61v389h-195v-389h-61v389z" />
    <glyph glyph-name="fl" unicode="fl" horiz-adv-x="454" 
d="M295 616l-20 -42q-27 21 -62 21q-75 0 -75 -95v-66h125v-45h-125v-389h-61v389h-67v45h67v66q0 65 35.5 103.5t96.5 38.5q48 0 86 -26zM333 630h61v-630h-61v630z" />
    <glyph glyph-name="ffi" unicode="ffi" horiz-adv-x="710" 
d="M333 389h-195v-389h-61v389h-67v45h67v56q0 64 37.5 103t96.5 39q55 0 102 -32l-20 -42q-37 27 -78 27q-77 0 -77 -95v-56h195v39q0 78 41 123.5t116 45.5q116 0 150 -105l-52 -19q-23 75 -98 75q-45 0 -70.5 -28.5t-25.5 -82.5v-48h256v-434h-61v389h-195v-389h-61v389z
" />
    <glyph glyph-name="ffl" unicode="ffl" horiz-adv-x="710" 
d="M333 389h-195v-389h-61v389h-67v45h67v56q0 64 37.5 103t96.5 39q55 0 102 -32l-20 -42q-37 27 -78 27q-77 0 -77 -95v-56h195v66q0 65 35.5 103.5t96.5 38.5q48 0 86 -26l-20 -42q-27 21 -62 21q-75 0 -75 -95v-66h125v-45h-125v-389h-61v389zM589 630h61v-630h-61v630z
" />
    <glyph glyph-name="f_b" unicode="fb" horiz-adv-x="786" 
d="M392 232v-30q0 -76 43.5 -120t110.5 -44q68 0 106.5 48t38.5 131t-38.5 131t-106.5 48q-67 0 -110.5 -44t-43.5 -120zM394 95l-15 -95h-46v630h61v-292q15 45 58 76.5t102 31.5q94 0 147.5 -65t53.5 -164t-53.5 -164t-147.5 -65q-60 0 -102.5 31t-57.5 76zM295 616
l-20 -42q-27 21 -62 21q-75 0 -75 -95v-66h125v-45h-125v-389h-61v389h-67v45h67v66q0 65 35.5 103.5t96.5 38.5q48 0 86 -26z" />
    <glyph glyph-name="f_f_b" unicode="ffb" horiz-adv-x="1042" 
d="M648 232v-30q0 -76 43.5 -120t110.5 -44q68 0 106.5 48t38.5 131t-38.5 131t-106.5 48q-67 0 -110.5 -44t-43.5 -120zM650 95l-15 -95h-46v630h61v-292q15 45 58 76.5t102 31.5q94 0 147.5 -65t53.5 -164t-53.5 -164t-147.5 -65q-60 0 -102.5 31t-57.5 76zM333 389h-195
v-389h-61v389h-67v45h67v56q0 64 37.5 103t96.5 39q55 0 102 -32l-20 -42q-37 27 -78 27q-77 0 -77 -95v-56h195v66q0 65 35.5 103.5t96.5 38.5q48 0 86 -26l-20 -42q-27 21 -62 21q-75 0 -75 -95v-66h125v-45h-125v-389h-61v389z" />
    <glyph glyph-name="f_h" unicode="fh" horiz-adv-x="754" 
d="M394 260v-260h-61v630h61v-276q16 40 57 66t89 26q81 0 120 -47.5t39 -129.5v-269h-61v271q0 59 -29.5 93t-84.5 34q-54 0 -92 -38.5t-38 -99.5zM295 616l-20 -42q-27 21 -62 21q-75 0 -75 -95v-66h125v-45h-125v-389h-61v389h-67v45h67v66q0 65 35.5 103.5t96.5 38.5
q48 0 86 -26z" />
    <glyph glyph-name="f_f_h" unicode="ffh" horiz-adv-x="1010" 
d="M650 260v-260h-61v630h61v-276q16 40 57 66t89 26q81 0 120 -47.5t39 -129.5v-269h-61v271q0 59 -29.5 93t-84.5 34q-54 0 -92 -38.5t-38 -99.5zM333 389h-195v-389h-61v389h-67v45h67v56q0 64 37.5 103t96.5 39q55 0 102 -32l-20 -42q-37 27 -78 27q-77 0 -77 -95v-56
h195v66q0 65 35.5 103.5t96.5 38.5q48 0 86 -26l-20 -42q-27 21 -62 21q-75 0 -75 -95v-66h125v-45h-125v-389h-61v389z" />
    <glyph glyph-name="f_idieresis" unicode="f&#xef;" horiz-adv-x="454" 
d="M77 389h-67v45h67v61q0 66 35.5 106.5t100.5 40.5q100 0 130 -96l-53 -20q-19 69 -77 69q-75 0 -75 -92v-69h256v-434h-61v389h-195v-389h-61v389zM393 539v81h65v-81h-65z" />
    <glyph glyph-name="f_f_idieresis" unicode="ff&#xef;" horiz-adv-x="710" 
d="M333 389h-195v-389h-61v389h-67v45h67v56q0 64 37.5 103t96.5 39q55 0 102 -32l-20 -42q-37 27 -78 27q-77 0 -77 -95v-56h195v61q0 66 35.5 106.5t100.5 40.5q100 0 130 -96l-53 -20q-19 69 -77 69q-75 0 -75 -92v-69h256v-434h-61v389h-195v-389h-61v389zM649 539v81
h65v-81h-65z" />
    <glyph glyph-name="f_j" unicode="fj" horiz-adv-x="454" 
d="M333 -83v472h-195v-389h-61v389h-67v45h67v39q0 78 41 123.5t116 45.5q61 0 96.5 -26t53.5 -79l-52 -19q-23 75 -98 75q-45 0 -70.5 -28.5t-25.5 -82.5v-48h256v-507q0 -109 -102 -109q-52 0 -89 32l19 40q35 -23 69 -23q42 0 42 50z" />
    <glyph glyph-name="f_f_j" unicode="ffj" horiz-adv-x="710" 
d="M589 -83v472h-195v-389h-61v389h-195v-389h-61v389h-67v45h67v56q0 64 37.5 103t96.5 39q55 0 102 -32l-20 -42q-37 27 -78 27q-77 0 -77 -95v-56h195v39q0 78 41 123.5t116 45.5q116 0 150 -105l-52 -19q-23 75 -98 75q-45 0 -70.5 -28.5t-25.5 -82.5v-48h256v-507
q0 -109 -102 -109q-52 0 -89 32l19 40q35 -23 69 -23q42 0 42 50z" />
    <glyph glyph-name="f_k" unicode="fk" horiz-adv-x="733" 
d="M394 163v-163h-61v630h61v-406l239 210h80l-206 -180l216 -254h-74l-187 220zM295 616l-20 -42q-27 21 -62 21q-75 0 -75 -95v-66h125v-45h-125v-389h-61v389h-67v45h67v66q0 65 35.5 103.5t96.5 38.5q48 0 86 -26z" />
    <glyph glyph-name="f_f_k" unicode="ffk" horiz-adv-x="989" 
d="M650 163v-163h-61v630h61v-406l239 210h80l-206 -180l216 -254h-74l-187 220zM333 389h-195v-389h-61v389h-67v45h67v56q0 64 37.5 103t96.5 39q55 0 102 -32l-20 -42q-37 27 -78 27q-77 0 -77 -95v-56h195v66q0 65 35.5 103.5t96.5 38.5q48 0 86 -26l-20 -42
q-27 21 -62 21q-75 0 -75 -95v-66h125v-45h-125v-389h-61v389z" />
    <glyph glyph-name=".notdef" horiz-adv-x="608" 
 />
    <glyph glyph-name=".null" horiz-adv-x="0" 
 />
    <glyph glyph-name="nonmarkingreturn" horiz-adv-x="333" 
 />
    <glyph glyph-name="space" unicode=" " horiz-adv-x="180" 
 />
    <glyph glyph-name="exclam" unicode="!" horiz-adv-x="180" 
d="M50 0v80h80v-80h-80zM57 630h66v-180l-22 -298h-22l-22 298v180z" />
    <glyph glyph-name="quotedbl" unicode="&#x22;" horiz-adv-x="267" 
d="M50 417v213h55v-213h-55zM162 417v213h55v-213h-55z" />
    <glyph glyph-name="numbersign" unicode="#" horiz-adv-x="606" 
d="M543 214l-8 -47h-128l-40 -167h-56l40 167h-166l-40 -167h-56l40 167h-109l8 47h112l48 203h-125l8 47h128l40 166h56l-40 -166h166l40 166h56l-40 -166h109l-8 -47h-112l-48 -203h125zM244 417l-48 -203h166l48 203h-166z" />
    <glyph glyph-name="dollar" unicode="$" horiz-adv-x="539" 
d="M22 226l56 5q3 -83 48.5 -133t119.5 -59v252l-55 11q-69 14 -109.5 55.5t-40.5 109.5q0 78 55 126t150 49v90h49v-93q93 -12 144.5 -70t51.5 -153l-57 -5q-1 74 -37.5 120t-101.5 58v-249l42 -8q85 -17 126 -55.5t41 -110.5q0 -79 -58 -126t-151 -51v-92h-49v93
q-101 9 -162.5 70.5t-61.5 165.5zM317 277l-22 4v-244q67 4 107.5 36.5t40.5 87.5q0 48 -29.5 75t-96.5 41zM100 469q0 -51 31.5 -76.5t96.5 -38.5l18 -4v243q-71 -1 -108.5 -33.5t-37.5 -90.5z" />
    <glyph glyph-name="percent" unicode="%" horiz-adv-x="715" 
d="M91 479q0 -118 82 -118t82 118t-82 118t-82 -118zM30 479q0 75 40.5 119t102.5 44t102.5 -44t40.5 -119t-40.5 -119t-102.5 -44t-102.5 44t-40.5 119zM624 151q0 118 -82 118t-82 -118t82 -118t82 118zM545 630l-320 -630h-55l320 630h55zM685 151q0 -75 -40.5 -119
t-102.5 -44t-102.5 44t-40.5 119t40.5 119t102.5 44t102.5 -44t40.5 -119z" />
    <glyph glyph-name="ampersand" unicode="&#x26;" horiz-adv-x="607" 
d="M504 317l52 -4q-30 -125 -102 -211q54 -59 104 -59q30 0 49 5v-42q-27 -14 -59 -14q-35 0 -64.5 16t-66.5 55q-85 -75 -190 -75q-85 0 -141 46.5t-56 124.5q0 62 35 105t103 80q-67 81 -67 148q0 66 43 108t113 42q69 0 107 -37.5t38 -99.5q0 -55 -36.5 -94t-111.5 -76
l168 -196v-1q60 72 82 179zM227 39q88 0 157 60l-15 17l-170 192q-55 -29 -81 -61.5t-26 -86.5t38 -87.5t97 -33.5zM158 492q0 -23 10.5 -45.5t21 -36t32.5 -39.5q71 33 98 61.5t27 73.5q0 37 -23 63t-67 26q-43 0 -71 -26.5t-28 -76.5z" />
    <glyph glyph-name="quotesingle" unicode="'" horiz-adv-x="155" 
d="M50 417v213h55v-213h-55z" />
    <glyph glyph-name="parenleft" unicode="(" horiz-adv-x="273" 
d="M40 288q0 103 36 201.5t102 170.5h65q-135 -154 -135 -372t135 -372h-65q-66 72 -102 170.5t-36 201.5z" />
    <glyph glyph-name="parenright" unicode=")" horiz-adv-x="273" 
d="M233 288q0 -103 -36 -201.5t-102 -170.5h-65q135 154 135 372t-135 372h65q66 -72 102 -170.5t36 -201.5z" />
    <glyph glyph-name="asterisk" unicode="*" horiz-adv-x="353" 
d="M15 507l16 44l122 -42v133h47v-133l124 44l14 -45l-125 -39l79 -106l-39 -27l-76 105l-76 -107l-37 29l77 104z" />
    <glyph glyph-name="plus" unicode="+" horiz-adv-x="620" 
d="M284 566h52v-228h227v-52h-227v-227h-52v227h-227v52h227v228z" />
    <glyph glyph-name="comma" unicode="," horiz-adv-x="160" 
d="M40 0v80h80v-81q0 -53 -15 -77t-65 -24v41q25 2 32 14t7 47h-39z" />
    <glyph glyph-name="hyphen" unicode="-" horiz-adv-x="340" 
d="M60 227v55h220v-55h-220z" />
    <glyph glyph-name="period" unicode="." horiz-adv-x="160" 
d="M40 0v80h80v-80h-80z" />
    <glyph glyph-name="slash" unicode="/" horiz-adv-x="303" 
d="M-20 -83l260 742h59l-260 -742h-59z" />
    <glyph glyph-name="zero" unicode="0" horiz-adv-x="580" 
d="M545 315q0 -157 -66.5 -242t-188.5 -85t-188.5 85t-66.5 242t66.5 242t188.5 85t188.5 -85t66.5 -242zM479 315q0 276 -189 276t-189 -276t189 -276t189 276z" />
    <glyph glyph-name="one" unicode="1" horiz-adv-x="271" 
d="M10 499v40q64 0 96 22.5t50 73.5h35v-635h-63v499h-118z" />
    <glyph glyph-name="two" unicode="2" 
d="M130 56h353v-56h-456v30l179 158q41 36 59 52.5t48 47.5t43 52.5t24 50.5t11 58q0 65 -36.5 103.5t-104.5 38.5q-71 0 -111 -42.5t-40 -119.5q0 -30 7 -59l-64 4q-6 30 -6 59q0 96 58 152.5t156 56.5q103 0 155 -53t52 -137q0 -41 -17 -81.5t-50 -79t-60.5 -65
t-69.5 -61.5z" />
    <glyph glyph-name="three" unicode="3" horiz-adv-x="509" 
d="M419 170q0 58 -43 90.5t-111 32.5q-34 0 -64 -4v57q23 -3 64 -3q63 0 102.5 28t39.5 92q0 58 -38 93t-110 35q-75 0 -118 -45.5t-43 -128.5l-62 3q0 99 60.5 160.5t162.5 61.5q100 0 155.5 -47.5t55.5 -127.5q0 -59 -37 -100t-87 -49q58 -8 97 -50t39 -103
q0 -77 -60 -127t-161 -50q-110 0 -173.5 59.5t-63.5 164.5l62 -4q2 -82 48.5 -125.5t127.5 -43.5q72 0 114.5 34t42.5 97z" />
    <glyph glyph-name="four" unicode="4" horiz-adv-x="535" 
d="M415 630v-401h115v-51h-115v-178h-62v178h-337v61l321 391h78zM353 572l-282 -343h282v343z" />
    <glyph glyph-name="five" unicode="5" horiz-adv-x="524" 
d="M453 630v-59h-311q-1 -28 -10.5 -114.5t-15.5 -111.5q57 74 162 74q102 0 159 -60.5t57 -150.5q0 -97 -62 -158.5t-163 -61.5q-110 0 -171.5 65t-56.5 171l63 -6q-1 -83 42 -131.5t125 -48.5q74 0 116.5 45.5t42.5 123.5q0 71 -43 115t-116 44q-55 0 -94.5 -25.5
t-60.5 -65.5l-64 4q35 193 40 351h361z" />
    <glyph glyph-name="six" unicode="6" horiz-adv-x="544" 
d="M291 592q-104 0 -153.5 -86t-46.5 -232q16 66 67.5 107.5t132.5 41.5q101 0 161.5 -60t60.5 -156q0 -98 -61 -158.5t-165 -60.5q-122 0 -187 83.5t-65 228.5q0 156 64.5 249t191.5 93q92 0 150 -50.5t65 -137.5l-61 -3q-22 141 -154 141zM115 205q0 -75 46.5 -120
t125.5 -45q76 0 120 45t44 120q0 76 -44.5 120t-123.5 44t-123.5 -44t-44.5 -120z" />
    <glyph glyph-name="seven" unicode="7" horiz-adv-x="474" 
d="M380 572h-360v58h434v-31q-218 -230 -221 -599h-68q2 168 60.5 320t154.5 252z" />
    <glyph glyph-name="eight" unicode="8" horiz-adv-x="518" 
d="M259 594q-67 0 -106.5 -33.5t-39.5 -96.5q0 -59 40 -92t106 -33t106 33t40 92q0 63 -39.5 96.5t-106.5 33.5zM259 289q-80 0 -122.5 -31.5t-42.5 -92.5t43 -95t122 -34t122 34t43 95t-42.5 92.5t-122.5 31.5zM259 -12q-108 0 -170 48t-62 130q0 59 39 99.5t94 50.5
q-51 18 -80.5 57t-29.5 94q0 80 59 127.5t150 47.5t150 -47.5t59 -127.5q0 -55 -29.5 -94t-80.5 -57q55 -10 94 -50.5t39 -99.5q0 -82 -62 -130t-170 -48z" />
    <glyph glyph-name="nine" unicode="9" horiz-adv-x="544" 
d="M253 38q104 0 153.5 86t46.5 232q-16 -66 -67.5 -107.5t-132.5 -41.5q-101 0 -161.5 60t-60.5 156q0 98 61 158.5t165 60.5q122 0 187 -83.5t65 -228.5q0 -156 -64.5 -249t-191.5 -93q-92 0 -150 50.5t-65 137.5l61 3q22 -141 154 -141zM429 425q0 75 -46.5 120
t-125.5 45q-76 0 -120 -45t-44 -120q0 -76 44.5 -120t123.5 -44t123.5 44t44.5 120z" />
    <glyph glyph-name="colon" unicode=":" horiz-adv-x="160" 
d="M40 0v80h80v-80h-80zM40 331v80h80v-80h-80z" />
    <glyph glyph-name="semicolon" unicode=";" horiz-adv-x="160" 
d="M40 0v80h80v-81q0 -53 -15 -77t-65 -24v41q25 2 32 14t7 47h-39zM40 331v80h80v-80h-80z" />
    <glyph glyph-name="less" unicode="&#x3c;" horiz-adv-x="460" 
d="M43 279v63l386 219v-61l-339 -190l339 -189v-62z" />
    <glyph glyph-name="equal" unicode="=" horiz-adv-x="631" 
d="M62 211v53h507v-53h-507zM62 356v53h507v-53h-507z" />
    <glyph glyph-name="greater" unicode="&#x3e;" horiz-adv-x="460" 
d="M417 342v-63l-386 -220v62l338 189l-338 190v61z" />
    <glyph glyph-name="question" unicode="?" horiz-adv-x="478" 
d="M257 156h-57q0 45 17 76t59 65q3 3 16 13.5t17.5 14t15.5 13.5t15.5 15.5t13 16t12 19t8.5 19.5t6.5 23.5t1.5 25.5q0 60 -35.5 97t-102.5 37q-71 0 -111 -42.5t-40 -119.5q0 -30 7 -59l-64 4q-6 30 -6 59q0 96 58 152.5t156 56.5q103 0 153.5 -52t50.5 -133
q0 -60 -34.5 -104t-104.5 -100q-30 -24 -41 -44.5t-11 -52.5zM185 0v80h80v-80h-80z" />
    <glyph glyph-name="at" unicode="@" horiz-adv-x="755" 
d="M552 83q52 0 85.5 48t33.5 143q0 109 -70 177.5t-190 68.5q-144 0 -233.5 -92.5t-89.5 -236.5q0 -129 85 -206.5t211 -77.5q113 0 206 45l21 -35q-95 -57 -228 -57q-150 0 -249 89t-99 244q0 162 103.5 268t272.5 106q146 0 230 -81.5t84 -211.5q0 -116 -52 -178
t-128 -62q-39 0 -62.5 20.5t-29.5 52.5q-18 -33 -52 -53t-76 -20q-58 0 -93 37t-35 102q0 84 52 151.5t137 67.5q41 0 71 -18.5t41 -47.5l16 58h59l-61 -241q-8 -33 2.5 -46.5t37.5 -13.5zM466 201l7 26q13 51 -10.5 85t-71.5 34q-58 0 -94 -53t-36 -121q0 -87 75 -87
q42 0 78.5 30.5t51.5 85.5z" />
    <glyph glyph-name="A" unicode="A" horiz-adv-x="623" 
d="M274 630h68l266 -630h-67l-85 203h-298l-81 -203h-62zM303 562l-123 -306h254l-127 306h-4z" />
    <glyph glyph-name="B" unicode="B" horiz-adv-x="579" 
d="M541 173q0 -82 -58 -127.5t-167 -45.5h-251v630h243q111 0 163 -44t52 -122q0 -54 -34 -91t-87 -46q62 -10 100.5 -49.5t38.5 -104.5zM321 301h-195v-248h195q77 0 118 32t41 91q0 60 -41 92.5t-118 32.5zM126 577v-225h192q143 0 143 112q0 53 -35 83t-108 30h-192z" />
    <glyph glyph-name="C" unicode="C" horiz-adv-x="665" 
d="M35 315q0 144 87.5 235.5t218.5 91.5q130 0 205.5 -73t83.5 -198l-61 -3q-5 98 -65.5 159.5t-162.5 61.5q-105 0 -172.5 -74.5t-67.5 -199.5t67.5 -199.5t172.5 -74.5q102 0 162.5 61.5t65.5 159.5l61 -3q-8 -125 -83.5 -198t-205.5 -73q-131 0 -218.5 91.5t-87.5 235.5z
" />
    <glyph glyph-name="D" unicode="D" horiz-adv-x="640" 
d="M128 53h156q123 0 189 69t66 193t-66 193t-189 69h-156v-524zM65 0v630h222q147 0 232.5 -84t85.5 -231t-85.5 -231t-232.5 -84h-222z" />
    <glyph glyph-name="E" unicode="E" horiz-adv-x="541" 
d="M501 53v-53h-436v630h427v-53h-366v-224h293v-53h-293v-247h375z" />
    <glyph glyph-name="F" unicode="F" horiz-adv-x="507" 
d="M127 0h-62v630h417v-53h-355v-234h282v-53h-282v-290z" />
    <glyph glyph-name="G" unicode="G" horiz-adv-x="685" 
d="M342 -12q-135 0 -221 90.5t-86 236.5q0 144 87 235.5t217 91.5q131 0 205.5 -68.5t82.5 -192.5l-61 -4q-5 97 -64.5 154.5t-162.5 57.5q-105 0 -171.5 -75t-66.5 -200t67.5 -199t176.5 -74q100 0 160 58.5t65 153.5h-206v53h262v-306h-59v124q-19 -63 -82 -99.5
t-143 -36.5z" />
    <glyph glyph-name="H" unicode="H" horiz-adv-x="650" 
d="M128 0h-63v630h63v-277h394v277h63v-630h-63v300h-394v-300z" />
    <glyph glyph-name="I" unicode="I" horiz-adv-x="193" 
d="M65 630h63v-630h-63v630z" />
    <glyph glyph-name="J" unicode="J" horiz-adv-x="495" 
d="M377 630h63v-419q0 -108 -56 -165.5t-154 -57.5q-96 0 -154 56.5t-63 163.5l59 5q6 -83 46.5 -128.5t113.5 -45.5q145 0 145 170v421z" />
    <glyph glyph-name="K" unicode="K" horiz-adv-x="568" 
d="M568 0h-78l-283 312l-79 -78v-234h-63v630h63v-327l328 327h77l-279 -279z" />
    <glyph glyph-name="L" unicode="L" horiz-adv-x="515" 
d="M65 630h63v-577h362v-53h-425v630z" />
    <glyph glyph-name="M" unicode="M" horiz-adv-x="731" 
d="M394 0h-53l-212 570h-4v-570h-60v630h104l201 -545h3l190 545h103v-630h-64v570h-4z" />
    <glyph glyph-name="N" unicode="N" horiz-adv-x="632" 
d="M135 630l372 -519v519h60v-630h-50l-392 543v-543h-60v630h70z" />
    <glyph glyph-name="O" unicode="O" horiz-adv-x="688" 
d="M653 315q0 -146 -85.5 -236.5t-223.5 -90.5t-223.5 90.5t-85.5 236.5t85.5 236.5t223.5 90.5t223.5 -90.5t85.5 -236.5zM587 315q0 125 -66 199.5t-177 74.5t-177 -74.5t-66 -199.5t66 -199.5t177 -74.5t177 74.5t66 199.5z" />
    <glyph glyph-name="P" unicode="P" horiz-adv-x="546" 
d="M127 299h153q88 0 133.5 36t45.5 103t-45.5 103t-133.5 36h-153v-278zM127 246v-246h-62v630h215q115 0 178 -51t63 -141t-63 -141t-178 -51h-153z" />
    <glyph glyph-name="Q" unicode="Q" horiz-adv-x="688" 
d="M653 315q0 -137 -78 -228l64 -70l-39 -35l-64 68q-79 -62 -192 -62q-138 0 -223.5 90.5t-85.5 236.5t85.5 236.5t223.5 90.5t223.5 -90.5t85.5 -236.5zM587 315q0 125 -66 199.5t-177 74.5t-177 -74.5t-66 -199.5t66 -199.5t177 -74.5q93 0 154 49l-74 80l41 36l70 -77
q52 70 52 186z" />
    <glyph glyph-name="R" unicode="R" horiz-adv-x="588" 
d="M548 0h-68q-18 26 -26 142q-7 124 -131 124h-196v-266h-62v630h238q116 0 175.5 -49t59.5 -133q0 -69 -41 -109t-104 -47q113 -21 123 -139q7 -79 12 -108t20 -45zM127 318h178q168 0 168 130q0 61 -41.5 95t-126.5 34h-178v-259z" />
    <glyph glyph-name="S" unicode="S" horiz-adv-x="549" 
d="M22 226l57 5q4 -92 60 -143t144 -51q78 0 123.5 33t45.5 91q0 48 -30.5 75t-98.5 41l-128 25q-152 30 -152 161q0 79 59 129t157 50q115 0 179.5 -60t64.5 -166l-58 -5q-2 86 -50.5 134t-134.5 48q-74 0 -115 -34t-41 -94q0 -50 30.5 -73.5t97.5 -36.5l112 -22
q86 -17 127 -55.5t41 -111.5q0 -82 -63.5 -130t-165.5 -48q-116 0 -188.5 63t-72.5 175z" />
    <glyph glyph-name="T" unicode="T" horiz-adv-x="572" 
d="M316 0h-63v577h-233v53h532v-53h-236v-577z" />
    <glyph glyph-name="U" unicode="U" horiz-adv-x="604" 
d="M302 -12q-111 0 -179 60t-68 190v392h63v-401q0 -93 48 -140.5t136 -47.5q89 0 137.5 47.5t48.5 139.5v402h61v-392q0 -130 -68 -190t-179 -60z" />
    <glyph glyph-name="V" unicode="V" horiz-adv-x="614" 
d="M342 0h-70l-257 630h65l228 -561h4l222 561h65z" />
    <glyph glyph-name="W" unicode="W" horiz-adv-x="792" 
d="M427 630l150 -560h4l137 560h59l-160 -630h-79l-139 532h-4l-141 -532h-79l-160 630h61l140 -557h4l147 557h60z" />
    <glyph glyph-name="X" unicode="X" horiz-adv-x="589" 
d="M550 630l-221 -300l245 -330h-75l-207 278l-205 -278h-72l244 325l-222 305h75l183 -256l184 256h71z" />
    <glyph glyph-name="Y" unicode="Y" horiz-adv-x="584" 
d="M296 307l206 323h67l-247 -381v-249h-60v249l-247 381h69z" />
    <glyph glyph-name="Z" unicode="Z" horiz-adv-x="551" 
d="M111 53h410v-53h-491v42l400 535h-395v53h475v-45z" />
    <glyph glyph-name="bracketleft" unicode="[" horiz-adv-x="265" 
d="M125 610v-644h90v-50h-150v744h150v-50h-90z" />
    <glyph glyph-name="backslash" unicode="\" horiz-adv-x="303" 
d="M63 659l260 -742h-59l-260 742h59z" />
    <glyph glyph-name="bracketright" unicode="]" horiz-adv-x="265" 
d="M140 -34v644h-90v50h150v-744h-150v50h90z" />
    <glyph glyph-name="asciicircum" unicode="^" horiz-adv-x="368" 
d="M158 630h52l148 -200h-65l-109 149l-109 -149h-65z" />
    <glyph glyph-name="underscore" unicode="_" horiz-adv-x="381" 
d="M20 -111v49h341v-49h-341z" />
    <glyph glyph-name="grave" unicode="`" 
d="M319 508h-42l-97 122h85z" />
    <glyph glyph-name="a" unicode="a" horiz-adv-x="478" 
d="M336 197v27l-106 -23q-68 -15 -98 -33t-30 -58q0 -33 21.5 -54t62.5 -21q65 0 107.5 45t42.5 117zM394 282v-209q0 -34 36 -34q20 0 39 11v-33q-23 -26 -57 -26q-32 0 -53.5 25.5t-22.5 66.5q-18 -40 -62.5 -67.5t-98.5 -27.5q-61 0 -98 32t-37 88q0 58 45.5 88.5
t134.5 48.5l116 24v22q0 50 -28 78.5t-79 28.5q-98 0 -124 -97l-52 10q13 60 59.5 97.5t115.5 37.5q81 0 123.5 -42t42.5 -122z" />
    <glyph glyph-name="b" unicode="b" horiz-adv-x="513" 
d="M119 232v-30q0 -76 43.5 -120t110.5 -44q68 0 106.5 48t38.5 131t-38.5 131t-106.5 48q-67 0 -110.5 -44t-43.5 -120zM121 95l-15 -95h-46v630h61v-292q15 45 58 76.5t102 31.5q94 0 147.5 -65t53.5 -164t-53.5 -164t-147.5 -65q-60 0 -102.5 31t-57.5 76z" />
    <glyph glyph-name="c" unicode="c" horiz-adv-x="483" 
d="M31 217q0 103 61 166t158 63q91 0 143.5 -53.5t58.5 -136.5l-56 -4q-5 64 -43.5 103.5t-104.5 39.5q-68 0 -110.5 -49t-42.5 -129t42.5 -129t110.5 -49q66 0 104.5 40t43.5 105l56 -6q-6 -83 -58.5 -136.5t-143.5 -53.5q-97 0 -158 63t-61 166z" />
    <glyph glyph-name="d" unicode="d" horiz-adv-x="513" 
d="M394 202v30q0 76 -43.5 120t-110.5 44q-68 0 -106.5 -48t-38.5 -131t38.5 -131t106.5 -48q67 0 110.5 44t43.5 120zM392 0v95q-15 -45 -57.5 -76t-102.5 -31q-94 0 -147.5 65t-53.5 164t53.5 164t147.5 65q59 0 102 -31.5t58 -76.5v292h61v-630h-61z" />
    <glyph glyph-name="e" unicode="e" horiz-adv-x="482" 
d="M398 155l52 -7q-16 -75 -68 -117.5t-131 -42.5q-96 0 -158 62t-62 161q0 102 61.5 168.5t154.5 66.5q98 0 151 -61.5t53 -154.5v-28h-357q3 -72 47.5 -118t109.5 -46q120 0 147 117zM95 245h291q-2 65 -38 109t-101 44q-62 0 -103 -44.5t-49 -108.5z" />
    <glyph glyph-name="f" unicode="f" horiz-adv-x="273" 
d="M77 389h-67v45h67v61q0 66 35.5 106.5t100.5 40.5q54 0 84.5 -23.5t45.5 -72.5l-45 -17q-9 31 -31 49.5t-54 18.5q-75 0 -75 -94v-69h125v-45h-125v-389h-61v389z" />
    <glyph glyph-name="g" unicode="g" horiz-adv-x="470" 
d="M404 299q0 -67 -49 -107t-127 -40q-56 0 -95 19q-36 -18 -36 -50q0 -41 57 -41h168q68 0 105 -31.5t37 -83.5q0 -75 -69.5 -111t-174.5 -36q-91 0 -150.5 31t-59.5 89q0 39 24.5 64t67.5 34q-56 17 -56 71q0 49 61 80q-54 40 -54 112q0 67 48.5 107t126.5 40
q87 0 135 -48q39 59 107 59v-59q-52 0 -89 -21q23 -34 23 -78zM72 -47q0 -46 39.5 -68.5t108.5 -22.5q185 0 185 101q0 63 -97 63h-137q-99 0 -99 -73zM342 298q0 50 -30 78t-84 28q-53 0 -82.5 -28t-29.5 -78q0 -49 29.5 -77t82.5 -28q54 0 84 27.5t30 77.5z" />
    <glyph glyph-name="h" unicode="h" horiz-adv-x="481" 
d="M121 260v-260h-61v630h61v-276q16 40 57 66t89 26q81 0 120 -47.5t39 -129.5v-269h-61v271q0 59 -29.5 93t-84.5 34q-54 0 -92 -38.5t-38 -99.5z" />
    <glyph glyph-name="i" unicode="i" horiz-adv-x="181" 
d="M60 434h61v-434h-61v434zM58 549v81h65v-81h-65z" />
    <glyph glyph-name="j" unicode="j" horiz-adv-x="181" 
d="M121 434v-507q0 -109 -102 -109q-52 0 -89 32l19 40q35 -23 69 -23q42 0 42 50v517h61zM58 549v81h65v-81h-65z" />
    <glyph glyph-name="k" unicode="k" horiz-adv-x="460" 
d="M121 163v-163h-61v630h61v-406l239 210h80l-206 -180l216 -254h-74l-187 220z" />
    <glyph glyph-name="l" unicode="l" horiz-adv-x="181" 
d="M60 630h61v-630h-61v630z" />
    <glyph glyph-name="m" unicode="m" horiz-adv-x="758" 
d="M405 350q18 43 56.5 69.5t88.5 26.5q80 0 116.5 -48t36.5 -129v-269h-61v271q0 59 -27 93t-80 34q-51 0 -87 -38.5t-36 -99.5v-260h-61v271q0 59 -27 93t-80 34q-51 0 -87 -38.5t-36 -99.5v-260h-61v434h61v-80q16 41 53.5 66.5t86.5 25.5q113 0 144 -96z" />
    <glyph glyph-name="n" unicode="n" horiz-adv-x="481" 
d="M121 260v-260h-61v434h61v-80q16 40 57 66t89 26q81 0 120 -47.5t39 -129.5v-269h-61v271q0 59 -29.5 93t-84.5 34q-54 0 -92 -38.5t-38 -99.5z" />
    <glyph glyph-name="o" unicode="o" horiz-adv-x="497" 
d="M95 217q0 -81 41 -131t112 -50q72 0 113 50t41 131t-41 131t-113 50q-71 0 -112 -50t-41 -131zM466 217q0 -100 -62 -164.5t-156 -64.5q-93 0 -155 64.5t-62 164.5t62 164.5t155 64.5q94 0 156 -64.5t62 -164.5z" />
    <glyph glyph-name="p" unicode="p" horiz-adv-x="513" 
d="M119 232v-30q0 -76 43.5 -120t110.5 -44q68 0 106.5 48t38.5 131t-38.5 131t-106.5 48q-67 0 -110.5 -44t-43.5 -120zM121 95v-265h-61v604h61v-96q15 45 58 76.5t102 31.5q94 0 147.5 -65t53.5 -164t-53.5 -164t-147.5 -65q-60 0 -102.5 31t-57.5 76z" />
    <glyph glyph-name="q" unicode="q" horiz-adv-x="513" 
d="M394 202v30q0 76 -43.5 120t-110.5 44q-68 0 -106.5 -48t-38.5 -131t38.5 -131t106.5 -48q67 0 110.5 44t43.5 120zM392 -170v265q-15 -45 -57.5 -76t-102.5 -31q-94 0 -147.5 65t-53.5 164t53.5 164t147.5 65q59 0 102 -31.5t58 -76.5v96h61v-604h-61z" />
    <glyph glyph-name="r" unicode="r" horiz-adv-x="313" 
d="M308 426l-7 -53q-33 17 -66 17q-48 0 -81 -43.5t-33 -108.5v-238h-61v434h61v-91q14 42 47 72.5t78 30.5q39 0 62 -20z" />
    <glyph glyph-name="s" unicode="s" horiz-adv-x="425" 
d="M29 147l49 6q7 -56 44 -86.5t99 -30.5q52 0 83 19.5t31 56.5q0 34 -22.5 49.5t-72.5 24.5l-75 13q-123 21 -123 118q0 58 44 93.5t116 35.5q173 0 184 -156l-47 -4q-16 112 -137 112q-47 0 -75 -20t-28 -54q0 -31 19 -48t60 -24l80 -13q68 -11 101.5 -38.5t33.5 -82.5
q0 -62 -48.5 -96t-122.5 -34q-82 0 -135 40.5t-58 118.5z" />
    <glyph glyph-name="t" unicode="t" horiz-adv-x="291" 
d="M75 96v293h-67v30l26 5q28 6 39 20.5t18 48.5l13 62h31v-121h126v-45h-126v-294q0 -58 56 -58q35 0 85 30v-43q-47 -36 -106 -36q-95 0 -95 108z" />
    <glyph glyph-name="u" unicode="u" horiz-adv-x="476" 
d="M355 174v260h61v-434h-61v80q-16 -40 -56 -66t-88 -26q-80 0 -118 47t-38 130v269h61v-271q0 -59 28.5 -93t82.5 -34q53 0 90.5 38.5t37.5 99.5z" />
    <glyph glyph-name="v" unicode="v" horiz-adv-x="437" 
d="M243 0h-49l-184 434h64l146 -352h4l143 352h60z" />
    <glyph glyph-name="w" unicode="w" horiz-adv-x="618" 
d="M337 434l102 -352h4l107 352h58l-138 -434h-58l-101 346h-4l-100 -346h-58l-139 434h61l109 -352h4l100 352h53z" />
    <glyph glyph-name="x" unicode="x" horiz-adv-x="452" 
d="M419 434l-161 -206l184 -228h-74l-146 184l-144 -184h-68l179 225l-166 209h74l128 -163l126 163h68z" />
    <glyph glyph-name="y" unicode="y" horiz-adv-x="441" 
d="M181 -170h-60l73 173l-184 431h64l149 -357h4l144 357h60z" />
    <glyph glyph-name="z" unicode="z" horiz-adv-x="421" 
d="M305 385h-265v49h345v-42l-279 -343h286v-49h-361v42z" />
    <glyph glyph-name="braceleft" unicode="{" horiz-adv-x="279" 
d="M25 263v50h25q30 0 38.5 15t8.5 58v183q0 46 18 68.5t61 22.5h53v-50h-40q-31 0 -31 -37v-187q0 -85 -66 -98q66 -13 66 -98v-187q0 -37 31 -37h40v-50h-53q-43 0 -61 22.5t-18 68.5v183q0 43 -8.5 58t-38.5 15h-25z" />
    <glyph glyph-name="bar" unicode="|" horiz-adv-x="186" 
d="M65 -83v742h56v-742h-56z" />
    <glyph glyph-name="braceright" unicode="}" horiz-adv-x="279" 
d="M254 313v-50h-25q-30 0 -38.5 -15t-8.5 -58v-183q0 -46 -18 -68.5t-61 -22.5h-53v50h40q31 0 31 37v187q0 85 66 98q-66 13 -66 98v187q0 37 -31 37h-40v50h53q43 0 61 -22.5t18 -68.5v-183q0 -43 8.5 -58t38.5 -15h25z" />
    <glyph glyph-name="asciitilde" unicode="~" horiz-adv-x="389" 
d="M93 208h-43q0 113 81 113q30 0 69.5 -32t57.5 -32q22 0 29 14.5t9 46.5h43q0 -113 -81 -113q-30 0 -69.5 32t-57.5 32q-22 0 -29 -14.5t-9 -46.5z" />
    <glyph glyph-name="exclamdown" unicode="&#xa1;" horiz-adv-x="180" 
d="M50 438v80h80v-80h-80zM123 -112h-66v180l22 298h22l22 -298v-180z" />
    <glyph glyph-name="cent" unicode="&#xa2;" horiz-adv-x="495" 
d="M229 -99v89q-86 8 -142 70.5t-56 156.5t56 156t142 71v99h49v-98q83 -6 131 -58.5t54 -130.5l-55 -4q-5 58 -39 96.5t-91 45.5v-354q58 6 91.5 43t40.5 101l53 -6q-6 -78 -54 -130.5t-131 -58.5v-88h-49zM93 217q0 -72 36.5 -119.5t99.5 -56.5v352q-63 -9 -99.5 -56.5
t-36.5 -119.5z" />
    <glyph glyph-name="sterling" unicode="&#xa3;" horiz-adv-x="551" 
d="M173 452q0 -47 22 -111h166v-48h-148q29 -81 29 -132q0 -19 -3 -39l20 -16t22 -17t20.5 -14.5t23.5 -14.5t23 -10.5t26 -7.5t27 -2q80 0 80 124l54 -2q0 -80 -36.5 -127t-100.5 -47q-34 0 -68 14t-53.5 28.5t-48.5 40.5q-30 -83 -114 -83q-43 0 -72 24t-29 68
q0 42 29 68.5t76 26.5q33 0 71 -19v5q0 55 -32 132h-99v48h78q-22 56 -22 111q0 85 49.5 137.5t138.5 52.5q91 0 143.5 -53.5t52.5 -148.5l-58 -3q0 76 -36 115t-102 39t-97.5 -38.5t-31.5 -100.5zM115 31q57 0 70 75q-38 26 -67 26q-26 0 -41 -13.5t-15 -38.5
q0 -22 15 -35.5t38 -13.5z" />
    <glyph glyph-name="yen" unicode="&#xa5;" horiz-adv-x="554" 
d="M77 272v48h138l-205 310h69l202 -310l196 310h67l-205 -310h138v-48h-170v-77h170v-48h-170v-147h-60v147h-170v48h170v77h-170z" />
    <glyph glyph-name="section" unicode="&#xa7;" horiz-adv-x="425" 
d="M405 237q0 -35 -21 -64.5t-55 -45.5q44 -36 44 -96q0 -54 -45 -90.5t-115 -36.5q-74 0 -124 40.5t-55 115.5l47 4q8 -55 46 -83.5t86 -28.5q47 0 75.5 19.5t28.5 58.5q0 27 -11 43.5t-43 30.5l-134 62q-55 25 -82.5 58t-27.5 85q0 34 21 63.5t54 45.5q-43 36 -43 97
q0 54 45 90.5t115 36.5q74 0 124 -40.5t55 -115.5l-47 -4q-8 55 -46 83.5t-86 28.5q-47 0 -75.5 -19.5t-28.5 -58.5q0 -27 11 -43.5t43 -30.5l134 -62q55 -25 82.5 -58t27.5 -85zM266 331l-123 57q-69 -22 -69 -79q0 -33 20.5 -53.5t63.5 -40.5l122 -58q70 23 70 80
q0 33 -20.5 53.5t-63.5 40.5z" />
    <glyph glyph-name="dieresis" unicode="&#xa8;" 
d="M155 539v81h65v-81h-65zM279 539v81h65v-81h-65z" />
    <glyph glyph-name="copyright" unicode="&#xa9;" horiz-adv-x="724" 
d="M35 315q0 141 95 234t232 93t232 -93t95 -234t-95 -234t-232 -93t-232 93t-95 234zM175 314q0 87 53.5 142.5t133.5 55.5t126.5 -45t51.5 -120l-53 -3q-3 53 -35 85.5t-88 32.5q-58 0 -93 -40t-35 -108t35 -107.5t93 -39.5q56 0 88 32.5t35 85.5l53 -4q-5 -75 -51.5 -120
t-126.5 -45t-133.5 55.5t-53.5 142.5zM81 315q0 -122 81.5 -202t199.5 -80t199.5 80t81.5 202t-81.5 202t-199.5 80t-199.5 -80t-81.5 -202z" />
    <glyph glyph-name="ordfeminine" unicode="&#xaa;" horiz-adv-x="377" 
d="M255 449v18l-76 -16q-47 -10 -68 -23t-21 -41q0 -23 15 -38t44 -15q46 0 76 32t30 83zM312 515v-152q0 -26 26 -26q14 0 30 8v-32q-22 -20 -49 -20q-26 0 -43.5 19t-19.5 50q-14 -30 -47 -50.5t-74 -20.5q-48 0 -76 24.5t-28 67.5q0 44 34 67.5t101 36.5l89 18v16
q0 35 -19.5 55t-55.5 20q-70 0 -87 -69l-52 8q10 48 46.5 77.5t92.5 29.5q64 0 98 -32.5t34 -94.5z" />
    <glyph glyph-name="guillemotleft" unicode="&#xab;" horiz-adv-x="384" 
d="M50 194v44l139 130v-66l-93 -86l93 -86v-66zM195 194v44l139 130v-66l-93 -86l93 -86v-66z" />
    <glyph glyph-name="registered" unicode="&#xae;" horiz-adv-x="400" 
d="M283 377h-38q-5 6 -8 38q0 30 -31 30h-42v-68h-36v183h83q69 0 69 -56q0 -20 -11.5 -32t-29.5 -14q32 -6 35 -38q1 -35 9 -43zM164 473h41q39 0 39 29t-39 29h-41v-58zM375 466q0 -76 -51 -126t-124 -50t-124 50t-51 126t51 126t124 50t124 -50t51 -126zM343 466
q0 63 -41 104.5t-102 41.5t-102 -41.5t-41 -104.5t41 -104.5t102 -41.5t102 41.5t41 104.5z" />
    <glyph glyph-name="macron" unicode="&#xaf;" 
d="M124 522v51h251v-51h-251z" />
    <glyph glyph-name="degree" unicode="&#xb0;" horiz-adv-x="330" 
d="M82 509q0 -37 23 -61.5t60 -24.5t60 24.5t23 61.5t-23 61.5t-60 24.5t-60 -24.5t-23 -61.5zM30 509q0 56 39 94.5t96 38.5t96 -38.5t39 -94.5t-39 -94.5t-96 -38.5t-96 38.5t-39 94.5z" />
    <glyph glyph-name="plusminus" unicode="&#xb1;" horiz-adv-x="615" 
d="M282 603h51v-200h232v-51h-232v-200h-51v200h-232v51h232v200zM50 46v52h515v-52h-515z" />
    <glyph glyph-name="twosuperior" unicode="&#xb2;" horiz-adv-x="328" 
d="M111 292h197v-48h-283v33l108 93q38 32 56 49.5t33 43.5t15 52q0 34 -19 54t-55 20q-38 0 -59 -23t-21 -64q0 -15 5 -35l-56 3q-4 24 -4 36q0 59 37 94.5t99 35.5q64 0 97.5 -33t33.5 -85q0 -33 -18.5 -65.5t-39 -53t-55.5 -49.5z" />
    <glyph glyph-name="threesuperior" unicode="&#xb3;" horiz-adv-x="333" 
d="M256 350q0 31 -23 48.5t-59 17.5q-18 0 -36 -2v45q8 -1 36 -1q75 0 75 64q0 32 -20 50.5t-58 18.5q-39 0 -62 -25t-23 -70l-54 2q0 61 38 99.5t102 38.5q63 0 98 -29.5t35 -79.5q0 -35 -22 -59.5t-52 -29.5q36 -5 59 -30t23 -62q0 -49 -38 -79t-101 -30q-69 0 -109 36.5
t-40 100.5l55 -2q1 -44 26 -67t68 -23q38 0 60 18t22 50z" />
    <glyph glyph-name="acute" unicode="&#xb4;" 
d="M222 508h-42l54 122h85z" />
    <glyph glyph-name="paragraph" unicode="&#xb6;" horiz-adv-x="480" 
d="M237 0v284q-103 0 -160 46t-57 127t57 127t160 46h178v-630h-55v577h-69v-577h-54z" />
    <glyph glyph-name="periodcentered" unicode="&#xb7;" horiz-adv-x="160" 
d="M40 215v80h80v-80h-80z" />
    <glyph glyph-name="cedilla" unicode="&#xb8;" 
d="M359 -102q0 -38 -31 -55.5t-79 -17.5q-63 0 -109 39l17 30q42 -34 92 -34q53 0 53 32q0 29 -31.5 33.5t-57.5 -10.5l-18 11l58 85h36l-44 -59q44 13 79 -1t35 -53z" />
    <glyph glyph-name="onesuperior" unicode="&#xb9;" horiz-adv-x="186" 
d="M8 536v36q39 0 59 13.5t31 45.5h38v-387h-56v292h-72z" />
    <glyph glyph-name="ordmasculine" unicode="&#xba;" horiz-adv-x="389" 
d="M86 466q0 -58 28.5 -93.5t79.5 -35.5t80 35.5t29 93.5t-29 94t-80 36t-79.5 -36t-28.5 -94zM364 466q0 -77 -48.5 -126t-121.5 -49t-121 49t-48 126t48 126.5t121 49.5t121.5 -49.5t48.5 -126.5z" />
    <glyph glyph-name="guillemotright" unicode="&#xbb;" horiz-adv-x="384" 
d="M189 238v-44l-139 -130v66l93 86l-93 86v66zM334 238v-44l-139 -130v66l93 86l-93 86v66z" />
    <glyph glyph-name="onequarter" unicode="&#xbc;" horiz-adv-x="685" 
d="M30 538v36q39 0 59 13.5t31 45.5h38v-387h-56v292h-72zM591 384v-237h64v-46h-64v-101h-55v101h-201v53l188 230h68zM536 334l-153 -187h153v187zM545 630l-414 -630h-57l414 630h57z" />
    <glyph glyph-name="onehalf" unicode="&#xbd;" horiz-adv-x="721" 
d="M30 538v36q39 0 59 13.5t31 45.5h38v-387h-56v292h-72zM545 630l-414 -630h-57l414 630h57zM494 48h197v-48h-283v33l108 93q38 32 56 49.5t33 43.5t15 52q0 34 -19 54t-55 20q-38 0 -59 -23t-21 -64q0 -15 5 -35l-56 3q-4 24 -4 36q0 59 37 94.5t99 35.5q64 0 97.5 -33
t33.5 -85q0 -33 -18.5 -65.5t-39 -53t-55.5 -49.5z" />
    <glyph glyph-name="threequarters" unicode="&#xbe;" horiz-adv-x="798" 
d="M704 384v-237h64v-46h-64v-101h-55v101h-201v53l188 230h68zM649 334l-153 -187h153v187zM261 351q0 31 -23 48.5t-59 17.5q-18 0 -36 -2v45q8 -1 36 -1q75 0 75 64q0 32 -20 50.5t-58 18.5q-39 0 -62 -25t-23 -70l-54 2q0 61 38 99.5t102 38.5q63 0 98 -29.5t35 -79.5
q0 -35 -22 -59.5t-52 -29.5q36 -5 59 -30t23 -62q0 -49 -38 -79t-101 -30q-69 0 -109 36.5t-40 100.5l55 -2q1 -44 26 -67t68 -23q37 0 59.5 18t22.5 50zM658 630l-414 -630h-57l414 630h57z" />
    <glyph glyph-name="questiondown" unicode="&#xbf;" horiz-adv-x="478" 
d="M221 362h57q0 -45 -17 -76t-59 -65q-3 -3 -16 -13.5t-17.5 -14t-15.5 -13.5t-15.5 -15.5t-13 -16t-12 -19t-8.5 -19.5t-6.5 -23.5t-1.5 -25.5q0 -60 35.5 -97t102.5 -37q71 0 111 42.5t40 119.5q0 30 -7 59l64 -4q6 -30 6 -59q0 -96 -58 -152.5t-156 -56.5
q-103 0 -153.5 52t-50.5 133q0 60 34.5 104t104.5 100q30 24 41 44.5t11 52.5zM293 518v-80h-80v80h80z" />
    <glyph glyph-name="Agrave" unicode="&#xc0;" horiz-adv-x="623" 
d="M274 630h68l266 -630h-67l-85 203h-298l-81 -203h-62zM303 562l-123 -306h254l-127 306h-4zM335 678h-42l-97 122h85z" />
    <glyph glyph-name="Aacute" unicode="&#xc1;" horiz-adv-x="623" 
d="M274 630h68l266 -630h-67l-85 203h-298l-81 -203h-62zM303 562l-123 -306h254l-127 306h-4zM324 678h-42l54 122h85z" />
    <glyph glyph-name="Acircumflex" unicode="&#xc2;" horiz-adv-x="623" 
d="M274 630h68l266 -630h-67l-85 203h-298l-81 -203h-62zM303 562l-123 -306h254l-127 306h-4zM263 800h80l79 -122h-49l-70 80l-70 -80h-49z" />
    <glyph glyph-name="Atilde" unicode="&#xc3;" horiz-adv-x="623" 
d="M274 630h68l266 -630h-67l-85 203h-298l-81 -203h-62zM303 562l-123 -306h254l-127 306h-4zM211 677h-43q0 113 81 113q30 0 69.5 -32t57.5 -32q22 0 29 14.5t9 46.5h43q0 -113 -81 -113q-30 0 -69.5 32t-57.5 32q-22 0 -29 -14.5t-9 -46.5z" />
    <glyph glyph-name="Adieresis" unicode="&#xc4;" horiz-adv-x="623" 
d="M274 630h68l266 -630h-67l-85 203h-298l-81 -203h-62zM303 562l-123 -306h254l-127 306h-4zM209 684v81h65v-81h-65zM333 684v81h65v-81h-65z" />
    <glyph glyph-name="Aring" unicode="&#xc5;" horiz-adv-x="623" 
d="M274 630h68l266 -630h-67l-85 203h-298l-81 -203h-62zM303 562l-123 -306h254l-127 306h-4zM218 740q0 35 23.5 58.5t61.5 23.5t61.5 -23.5t23.5 -58.5t-23.5 -58.5t-61.5 -23.5t-61.5 23.5t-23.5 58.5zM257 740q0 -21 12 -33.5t34 -12.5t34 12.5t12 33.5t-12 33.5
t-34 12.5t-34 -12.5t-12 -33.5z" />
    <glyph glyph-name="AE" unicode="&#xc6;" horiz-adv-x="974" 
d="M463 630h462v-53h-366v-224h293v-53h-293v-247h375v-53h-436v203h-271l-144 -203h-68zM494 579l-230 -323h234v323h-4z" />
    <glyph glyph-name="Ccedilla" unicode="&#xc7;" horiz-adv-x="665" 
d="M458 -102q0 -38 -31 -55.5t-79 -17.5q-64 0 -109 39l17 30q42 -34 92 -34q53 0 53 32q0 29 -31.5 33.5t-57.5 -10.5l-18 11l42 62q-129 2 -215 93t-86 234q0 144 87.5 235.5t218.5 91.5q130 0 205.5 -73t83.5 -198l-61 -3q-5 98 -65.5 159.5t-162.5 61.5
q-105 0 -172.5 -74.5t-67.5 -199.5t67.5 -199.5t172.5 -74.5q102 0 162.5 61.5t65.5 159.5l61 -3q-8 -117 -75 -189t-183 -80l-28 -38q44 13 79 -1t35 -53z" />
    <glyph glyph-name="Egrave" unicode="&#xc8;" horiz-adv-x="541" 
d="M501 53v-53h-436v630h427v-53h-366v-224h293v-53h-293v-247h375zM315 678h-42l-97 122h85z" />
    <glyph glyph-name="Eacute" unicode="&#xc9;" horiz-adv-x="541" 
d="M501 53v-53h-436v630h427v-53h-366v-224h293v-53h-293v-247h375zM304 678h-42l54 122h85z" />
    <glyph glyph-name="Ecircumflex" unicode="&#xca;" horiz-adv-x="541" 
d="M501 53v-53h-436v630h427v-53h-366v-224h293v-53h-293v-247h375zM243 800h80l79 -122h-49l-70 80l-70 -80h-49z" />
    <glyph glyph-name="Edieresis" unicode="&#xcb;" horiz-adv-x="541" 
d="M501 53v-53h-436v630h427v-53h-366v-224h293v-53h-293v-247h375zM189 684v81h65v-81h-65zM313 684v81h65v-81h-65z" />
    <glyph glyph-name="Igrave" unicode="&#xcc;" horiz-adv-x="193" 
d="M65 630h63v-630h-63v630zM128 678h-42l-97 122h85z" />
    <glyph glyph-name="Iacute" unicode="&#xcd;" horiz-adv-x="193" 
d="M65 630h63v-630h-63v630zM117 678h-42l54 122h85z" />
    <glyph glyph-name="Icircumflex" unicode="&#xce;" horiz-adv-x="193" 
d="M65 630h63v-630h-63v630zM56 800h80l79 -122h-49l-70 80l-70 -80h-49z" />
    <glyph glyph-name="Idieresis" unicode="&#xcf;" horiz-adv-x="193" 
d="M65 630h63v-630h-63v630zM2 684v81h65v-81h-65zM126 684v81h65v-81h-65z" />
    <glyph glyph-name="Eth" unicode="&#xd0;" horiz-adv-x="658" 
d="M6 300v53h77v277h222q147 0 232.5 -84t85.5 -231t-85.5 -231t-232.5 -84h-222v300h-77zM146 53h156q123 0 189 69t66 193t-66 193t-189 69h-156v-224h181v-53h-181v-247z" />
    <glyph glyph-name="Ntilde" unicode="&#xd1;" horiz-adv-x="632" 
d="M135 630l372 -519v519h60v-630h-50l-392 543v-543h-60v630h70zM223 677h-43q0 113 81 113q30 0 69.5 -32t57.5 -32q22 0 29 14.5t9 46.5h43q0 -113 -81 -113q-30 0 -69.5 32t-57.5 32q-22 0 -29 -14.5t-9 -46.5z" />
    <glyph glyph-name="Ograve" unicode="&#xd2;" horiz-adv-x="688" 
d="M653 315q0 -146 -85.5 -236.5t-223.5 -90.5t-223.5 90.5t-85.5 236.5t85.5 236.5t223.5 90.5t223.5 -90.5t85.5 -236.5zM587 315q0 125 -66 199.5t-177 74.5t-177 -74.5t-66 -199.5t66 -199.5t177 -74.5t177 74.5t66 199.5zM376 678h-42l-97 122h85z" />
    <glyph glyph-name="Oacute" unicode="&#xd3;" horiz-adv-x="688" 
d="M653 315q0 -146 -85.5 -236.5t-223.5 -90.5t-223.5 90.5t-85.5 236.5t85.5 236.5t223.5 90.5t223.5 -90.5t85.5 -236.5zM587 315q0 125 -66 199.5t-177 74.5t-177 -74.5t-66 -199.5t66 -199.5t177 -74.5t177 74.5t66 199.5zM365 678h-42l54 122h85z" />
    <glyph glyph-name="Ocircumflex" unicode="&#xd4;" horiz-adv-x="688" 
d="M653 315q0 -146 -85.5 -236.5t-223.5 -90.5t-223.5 90.5t-85.5 236.5t85.5 236.5t223.5 90.5t223.5 -90.5t85.5 -236.5zM587 315q0 125 -66 199.5t-177 74.5t-177 -74.5t-66 -199.5t66 -199.5t177 -74.5t177 74.5t66 199.5zM304 800h80l79 -122h-49l-70 80l-70 -80h-49z
" />
    <glyph glyph-name="Otilde" unicode="&#xd5;" horiz-adv-x="688" 
d="M653 315q0 -146 -85.5 -236.5t-223.5 -90.5t-223.5 90.5t-85.5 236.5t85.5 236.5t223.5 90.5t223.5 -90.5t85.5 -236.5zM587 315q0 125 -66 199.5t-177 74.5t-177 -74.5t-66 -199.5t66 -199.5t177 -74.5t177 74.5t66 199.5zM243 677h-43q0 113 81 113q30 0 69.5 -32
t57.5 -32q22 0 29 14.5t9 46.5h43q0 -113 -81 -113q-30 0 -69.5 32t-57.5 32q-22 0 -29 -14.5t-9 -46.5z" />
    <glyph glyph-name="Odieresis" unicode="&#xd6;" horiz-adv-x="688" 
d="M653 315q0 -146 -85.5 -236.5t-223.5 -90.5t-223.5 90.5t-85.5 236.5t85.5 236.5t223.5 90.5t223.5 -90.5t85.5 -236.5zM587 315q0 125 -66 199.5t-177 74.5t-177 -74.5t-66 -199.5t66 -199.5t177 -74.5t177 74.5t66 199.5zM250 684v81h65v-81h-65zM374 684v81h65v-81
h-65z" />
    <glyph glyph-name="multiply" unicode="&#xd7;" horiz-adv-x="528" 
d="M228 308l-167 167l37 37l165 -169l165 169l37 -37l-167 -167l167 -167l-37 -37l-165 169l-165 -169l-37 37z" />
    <glyph glyph-name="Oslash" unicode="&#xd8;" horiz-adv-x="688" 
d="M653 315q0 -146 -85.5 -236.5t-223.5 -90.5q-107 0 -185 56l-61 -76l-39 31l63 78q-87 90 -87 238q0 146 85.5 236.5t223.5 90.5q109 0 188 -59l55 68l39 -31l-57 -71q84 -90 84 -234zM101 315q0 -119 59 -192l336 415q-62 51 -152 51q-111 0 -177 -74.5t-66 -199.5z
M587 315q0 114 -56 187l-336 -414q63 -47 149 -47q111 0 177 74.5t66 199.5z" />
    <glyph glyph-name="Ugrave" unicode="&#xd9;" horiz-adv-x="604" 
d="M302 -12q-111 0 -179 60t-68 190v392h63v-401q0 -93 48 -140.5t136 -47.5q89 0 137.5 47.5t48.5 139.5v402h61v-392q0 -130 -68 -190t-179 -60zM334 678h-42l-97 122h85z" />
    <glyph glyph-name="Uacute" unicode="&#xda;" horiz-adv-x="604" 
d="M302 -12q-111 0 -179 60t-68 190v392h63v-401q0 -93 48 -140.5t136 -47.5q89 0 137.5 47.5t48.5 139.5v402h61v-392q0 -130 -68 -190t-179 -60zM323 678h-42l54 122h85z" />
    <glyph glyph-name="Ucircumflex" unicode="&#xdb;" horiz-adv-x="604" 
d="M302 -12q-111 0 -179 60t-68 190v392h63v-401q0 -93 48 -140.5t136 -47.5q89 0 137.5 47.5t48.5 139.5v402h61v-392q0 -130 -68 -190t-179 -60zM262 800h80l79 -122h-49l-70 80l-70 -80h-49z" />
    <glyph glyph-name="Udieresis" unicode="&#xdc;" horiz-adv-x="604" 
d="M302 -12q-111 0 -179 60t-68 190v392h63v-401q0 -93 48 -140.5t136 -47.5q89 0 137.5 47.5t48.5 139.5v402h61v-392q0 -130 -68 -190t-179 -60zM208 684v81h65v-81h-65zM332 684v81h65v-81h-65z" />
    <glyph glyph-name="Yacute" unicode="&#xdd;" horiz-adv-x="584" 
d="M296 307l206 323h67l-247 -381v-249h-60v249l-247 381h69zM313 678h-42l54 122h85z" />
    <glyph glyph-name="Thorn" unicode="&#xde;" horiz-adv-x="536" 
d="M127 187h143q88 0 133.5 36t45.5 103t-45.5 103t-133.5 36h-143v-278zM127 134v-134h-62v630h62v-112h143q115 0 178 -51t63 -141t-63 -141t-178 -51h-143z" />
    <glyph glyph-name="germandbls" unicode="&#xdf;" horiz-adv-x="471" 
d="M402 489q0 -57 -31 -92.5t-75 -42.5q67 -9 106 -55.5t39 -112.5q0 -90 -54 -140t-131 -50q-28 0 -64 12v48q34 -12 59 -12q57 0 93.5 36t36.5 106q0 64 -41 102.5t-108 37.5q-23 0 -40 -1v51q13 -2 40 -2q55 0 83 29.5t28 84.5q0 48 -28 77.5t-80 29.5q-56 0 -85 -37.5
t-29 -107.5v-450h-61v455q0 82 46 134.5t129 52.5q78 0 122.5 -41t44.5 -112z" />
    <glyph glyph-name="agrave" unicode="&#xe0;" horiz-adv-x="478" 
d="M336 197v27l-106 -23q-68 -15 -98 -33t-30 -58q0 -33 21.5 -54t62.5 -21q65 0 107.5 45t42.5 117zM394 282v-209q0 -34 36 -34q20 0 39 11v-33q-23 -26 -57 -26q-32 0 -53.5 25.5t-22.5 66.5q-18 -40 -62.5 -67.5t-98.5 -27.5q-61 0 -98 32t-37 88q0 58 45.5 88.5
t134.5 48.5l116 24v22q0 50 -28 78.5t-79 28.5q-98 0 -124 -97l-52 10q13 60 59.5 97.5t115.5 37.5q81 0 123.5 -42t42.5 -122zM264 508h-42l-97 122h85z" />
    <glyph glyph-name="aacute" unicode="&#xe1;" horiz-adv-x="478" 
d="M336 197v27l-106 -23q-68 -15 -98 -33t-30 -58q0 -33 21.5 -54t62.5 -21q65 0 107.5 45t42.5 117zM394 282v-209q0 -34 36 -34q20 0 39 11v-33q-23 -26 -57 -26q-32 0 -53.5 25.5t-22.5 66.5q-18 -40 -62.5 -67.5t-98.5 -27.5q-61 0 -98 32t-37 88q0 58 45.5 88.5
t134.5 48.5l116 24v22q0 50 -28 78.5t-79 28.5q-98 0 -124 -97l-52 10q13 60 59.5 97.5t115.5 37.5q81 0 123.5 -42t42.5 -122zM257 508h-42l54 122h85z" />
    <glyph glyph-name="acircumflex" unicode="&#xe2;" horiz-adv-x="478" 
d="M336 197v27l-106 -23q-68 -15 -98 -33t-30 -58q0 -33 21.5 -54t62.5 -21q65 0 107.5 45t42.5 117zM394 282v-209q0 -34 36 -34q20 0 39 11v-33q-23 -26 -57 -26q-32 0 -53.5 25.5t-22.5 66.5q-18 -40 -62.5 -67.5t-98.5 -27.5q-61 0 -98 32t-37 88q0 58 45.5 88.5
t134.5 48.5l116 24v22q0 50 -28 78.5t-79 28.5q-98 0 -124 -97l-52 10q13 60 59.5 97.5t115.5 37.5q81 0 123.5 -42t42.5 -122zM194 630h80l79 -122h-49l-70 80l-70 -80h-49z" />
    <glyph glyph-name="atilde" unicode="&#xe3;" horiz-adv-x="478" 
d="M336 197v27l-106 -23q-68 -15 -98 -33t-30 -58q0 -33 21.5 -54t62.5 -21q65 0 107.5 45t42.5 117zM394 282v-209q0 -34 36 -34q20 0 39 11v-33q-23 -26 -57 -26q-32 0 -53.5 25.5t-22.5 66.5q-18 -40 -62.5 -67.5t-98.5 -27.5q-61 0 -98 32t-37 88q0 58 45.5 88.5
t134.5 48.5l116 24v22q0 50 -28 78.5t-79 28.5q-98 0 -124 -97l-52 10q13 60 59.5 97.5t115.5 37.5q81 0 123.5 -42t42.5 -122zM136 511h-43q0 113 81 113q30 0 69.5 -32t57.5 -32q22 0 29 14.5t9 46.5h43q0 -113 -81 -113q-30 0 -69.5 32t-57.5 32q-22 0 -29 -14.5
t-9 -46.5z" />
    <glyph glyph-name="adieresis" unicode="&#xe4;" horiz-adv-x="478" 
d="M336 197v27l-106 -23q-68 -15 -98 -33t-30 -58q0 -33 21.5 -54t62.5 -21q65 0 107.5 45t42.5 117zM394 282v-209q0 -34 36 -34q20 0 39 11v-33q-23 -26 -57 -26q-32 0 -53.5 25.5t-22.5 66.5q-18 -40 -62.5 -67.5t-98.5 -27.5q-61 0 -98 32t-37 88q0 58 45.5 88.5
t134.5 48.5l116 24v22q0 50 -28 78.5t-79 28.5q-98 0 -124 -97l-52 10q13 60 59.5 97.5t115.5 37.5q81 0 123.5 -42t42.5 -122zM140 539v81h65v-81h-65zM264 539v81h65v-81h-65z" />
    <glyph glyph-name="aring" unicode="&#xe5;" horiz-adv-x="478" 
d="M336 197v27l-106 -23q-68 -15 -98 -33t-30 -58q0 -33 21.5 -54t62.5 -21q65 0 107.5 45t42.5 117zM394 282v-209q0 -34 36 -34q20 0 39 11v-33q-23 -26 -57 -26q-32 0 -53.5 25.5t-22.5 66.5q-18 -40 -62.5 -67.5t-98.5 -27.5q-61 0 -98 32t-37 88q0 58 45.5 88.5
t134.5 48.5l116 24v22q0 50 -28 78.5t-79 28.5q-98 0 -124 -97l-52 10q13 60 59.5 97.5t115.5 37.5q81 0 123.5 -42t42.5 -122zM188 570q0 -21 12 -33.5t34 -12.5t34 12.5t12 33.5t-12 33.5t-34 12.5t-34 -12.5t-12 -33.5zM149 570q0 35 23.5 58.5t61.5 23.5t61.5 -23.5
t23.5 -58.5t-23.5 -58.5t-61.5 -23.5t-61.5 23.5t-23.5 58.5z" />
    <glyph glyph-name="ae" unicode="&#xe6;" horiz-adv-x="774" 
d="M228 446q114 0 147 -84q63 84 164 84q98 0 151 -61.5t53 -154.5v-28h-357q3 -75 48 -119.5t109 -44.5q120 0 147 117l52 -7q-16 -75 -68 -117.5t-131 -42.5q-125 0 -183 106q-20 -43 -67.5 -74.5t-106.5 -31.5q-69 0 -107.5 32t-38.5 88q0 137 226 137h72v38q0 55 -29 85
t-80 30q-98 0 -124 -97l-52 10q13 60 59.5 97.5t115.5 37.5zM186 35q63 0 107.5 39.5t44.5 109.5v18h-71q-93 0 -129 -23t-36 -69q0 -33 21.5 -54t62.5 -21zM539 398q-59 0 -101 -42.5t-50 -110.5h290q-2 65 -38 109t-101 44z" />
    <glyph glyph-name="ccedilla" unicode="&#xe7;" horiz-adv-x="483" 
d="M352 -102q0 -38 -31 -55.5t-79 -17.5q-64 0 -109 39l17 30q42 -34 92 -34q53 0 53 32q0 29 -31.5 33.5t-57.5 -10.5l-18 11l42 63q-89 6 -144 68t-55 160q0 103 61 166t158 63q91 0 143.5 -53.5t58.5 -136.5l-56 -4q-5 64 -43.5 103.5t-104.5 39.5q-68 0 -110.5 -49
t-42.5 -129t42.5 -129t110.5 -49q66 0 104.5 40t43.5 105l56 -6q-6 -79 -54.5 -132t-132.5 -57l-27 -37q44 13 79 -1t35 -53z" />
    <glyph glyph-name="egrave" unicode="&#xe8;" horiz-adv-x="482" 
d="M398 155l52 -7q-16 -75 -68 -117.5t-131 -42.5q-96 0 -158 62t-62 161q0 102 61.5 168.5t154.5 66.5q98 0 151 -61.5t53 -154.5v-28h-357q3 -72 47.5 -118t109.5 -46q120 0 147 117zM95 245h291q-2 65 -38 109t-101 44q-62 0 -103 -44.5t-49 -108.5zM279 508h-42l-97 122
h85z" />
    <glyph glyph-name="eacute" unicode="&#xe9;" horiz-adv-x="482" 
d="M398 155l52 -7q-16 -75 -68 -117.5t-131 -42.5q-96 0 -158 62t-62 161q0 102 61.5 168.5t154.5 66.5q98 0 151 -61.5t53 -154.5v-28h-357q3 -72 47.5 -118t109.5 -46q120 0 147 117zM95 245h291q-2 65 -38 109t-101 44q-62 0 -103 -44.5t-49 -108.5zM264 508h-42l54 122
h85z" />
    <glyph glyph-name="ecircumflex" unicode="&#xea;" horiz-adv-x="482" 
d="M398 155l52 -7q-16 -75 -68 -117.5t-131 -42.5q-96 0 -158 62t-62 161q0 102 61.5 168.5t154.5 66.5q98 0 151 -61.5t53 -154.5v-28h-357q3 -72 47.5 -118t109.5 -46q120 0 147 117zM95 245h291q-2 65 -38 109t-101 44q-62 0 -103 -44.5t-49 -108.5zM207 630h80l79 -122
h-49l-70 80l-70 -80h-49z" />
    <glyph glyph-name="edieresis" unicode="&#xeb;" horiz-adv-x="482" 
d="M398 155l52 -7q-16 -75 -68 -117.5t-131 -42.5q-96 0 -158 62t-62 161q0 102 61.5 168.5t154.5 66.5q98 0 151 -61.5t53 -154.5v-28h-357q3 -72 47.5 -118t109.5 -46q120 0 147 117zM95 245h291q-2 65 -38 109t-101 44q-62 0 -103 -44.5t-49 -108.5zM153 539v81h65v-81
h-65zM277 539v81h65v-81h-65z" />
    <glyph glyph-name="igrave" unicode="&#xec;" horiz-adv-x="181" 
d="M60 434h61v-434h-61v434zM120 508h-42l-97 122h85z" />
    <glyph glyph-name="iacute" unicode="&#xed;" horiz-adv-x="181" 
d="M60 434h61v-434h-61v434zM113 508h-42l54 122h85z" />
    <glyph glyph-name="icircumflex" unicode="&#xee;" horiz-adv-x="181" 
d="M60 434h61v-434h-61v434zM50 630h80l79 -122h-49l-70 80l-70 -80h-49z" />
    <glyph glyph-name="idieresis" unicode="&#xef;" horiz-adv-x="181" 
d="M60 434h61v-434h-61v434zM-4 539v81h65v-81h-65zM120 539v81h65v-81h-65z" />
    <glyph glyph-name="eth" unicode="&#xf0;" horiz-adv-x="493" 
d="M155 472l-20 38l105 41q-45 33 -84 55l30 37q58 -32 108 -71l76 30l21 -37l-62 -25q134 -126 134 -313q0 -114 -59.5 -176.5t-155.5 -62.5q-94 0 -156 62.5t-62 161.5t62 162t156 63t148 -86q-30 88 -119 169zM248 36q72 0 113 48.5t41 127.5q0 80 -41 128.5t-113 48.5
t-113 -48.5t-41 -128.5q0 -79 41 -127.5t113 -48.5z" />
    <glyph glyph-name="ntilde" unicode="&#xf1;" horiz-adv-x="481" 
d="M121 260v-260h-61v434h61v-80q16 40 57 66t89 26q81 0 120 -47.5t39 -129.5v-269h-61v271q0 59 -29.5 93t-84.5 34q-54 0 -92 -38.5t-38 -99.5zM147 511h-43q0 113 81 113q30 0 69.5 -32t57.5 -32q22 0 29 14.5t9 46.5h43q0 -113 -81 -113q-30 0 -69.5 32t-57.5 32
q-22 0 -29 -14.5t-9 -46.5z" />
    <glyph glyph-name="ograve" unicode="&#xf2;" horiz-adv-x="497" 
d="M95 217q0 -81 41 -131t112 -50q72 0 113 50t41 131t-41 131t-113 50q-71 0 -112 -50t-41 -131zM466 217q0 -100 -62 -164.5t-156 -64.5q-93 0 -155 64.5t-62 164.5t62 164.5t155 64.5q94 0 156 -64.5t62 -164.5zM278 508h-42l-97 122h85z" />
    <glyph glyph-name="oacute" unicode="&#xf3;" horiz-adv-x="497" 
d="M95 217q0 -81 41 -131t112 -50q72 0 113 50t41 131t-41 131t-113 50q-71 0 -112 -50t-41 -131zM466 217q0 -100 -62 -164.5t-156 -64.5q-93 0 -155 64.5t-62 164.5t62 164.5t155 64.5q94 0 156 -64.5t62 -164.5zM271 508h-42l54 122h85z" />
    <glyph glyph-name="ocircumflex" unicode="&#xf4;" horiz-adv-x="497" 
d="M95 217q0 -81 41 -131t112 -50q72 0 113 50t41 131t-41 131t-113 50q-71 0 -112 -50t-41 -131zM466 217q0 -100 -62 -164.5t-156 -64.5q-93 0 -155 64.5t-62 164.5t62 164.5t155 64.5q94 0 156 -64.5t62 -164.5zM208 630h80l79 -122h-49l-70 80l-70 -80h-49z" />
    <glyph glyph-name="otilde" unicode="&#xf5;" horiz-adv-x="497" 
d="M95 217q0 -81 41 -131t112 -50q72 0 113 50t41 131t-41 131t-113 50q-71 0 -112 -50t-41 -131zM466 217q0 -100 -62 -164.5t-156 -64.5q-93 0 -155 64.5t-62 164.5t62 164.5t155 64.5q94 0 156 -64.5t62 -164.5zM152 511h-43q0 113 81 113q30 0 69.5 -32t57.5 -32
q22 0 29 14.5t9 46.5h43q0 -113 -81 -113q-30 0 -69.5 32t-57.5 32q-22 0 -29 -14.5t-9 -46.5z" />
    <glyph glyph-name="odieresis" unicode="&#xf6;" horiz-adv-x="497" 
d="M95 217q0 -81 41 -131t112 -50q72 0 113 50t41 131t-41 131t-113 50q-71 0 -112 -50t-41 -131zM466 217q0 -100 -62 -164.5t-156 -64.5q-93 0 -155 64.5t-62 164.5t62 164.5t155 64.5q94 0 156 -64.5t62 -164.5zM154 539v81h65v-81h-65zM278 539v81h65v-81h-65z" />
    <glyph glyph-name="divide" unicode="&#xf7;" horiz-adv-x="620" 
d="M57 286v52h506v-52h-506zM269 477v84h84v-84h-84zM269 63v84h84v-84h-84z" />
    <glyph glyph-name="oslash" unicode="&#xf8;" horiz-adv-x="497" 
d="M466 217q0 -100 -62 -164.5t-156 -64.5q-73 0 -130 41l-52 -61l-34 28l54 63q-55 63 -55 158q0 100 62 164.5t155 64.5q75 0 131 -42l53 62l34 -28l-55 -65q55 -63 55 -156zM95 217q0 -66 28 -114l222 261q-39 34 -97 34q-71 0 -112 -50t-41 -131zM402 217q0 66 -28 113
l-222 -261q38 -33 96 -33q72 0 113 50t41 131z" />
    <glyph glyph-name="ugrave" unicode="&#xf9;" horiz-adv-x="476" 
d="M355 174v260h61v-434h-61v80q-16 -40 -56 -66t-88 -26q-80 0 -118 47t-38 130v269h61v-271q0 -59 28.5 -93t82.5 -34q53 0 90.5 38.5t37.5 99.5zM269 508h-42l-97 122h85z" />
    <glyph glyph-name="uacute" unicode="&#xfa;" horiz-adv-x="476" 
d="M355 174v260h61v-434h-61v80q-16 -40 -56 -66t-88 -26q-80 0 -118 47t-38 130v269h61v-271q0 -59 28.5 -93t82.5 -34q53 0 90.5 38.5t37.5 99.5zM262 508h-42l54 122h85z" />
    <glyph glyph-name="ucircumflex" unicode="&#xfb;" horiz-adv-x="476" 
d="M355 174v260h61v-434h-61v80q-16 -40 -56 -66t-88 -26q-80 0 -118 47t-38 130v269h61v-271q0 -59 28.5 -93t82.5 -34q53 0 90.5 38.5t37.5 99.5zM199 630h80l79 -122h-49l-70 80l-70 -80h-49z" />
    <glyph glyph-name="udieresis" unicode="&#xfc;" horiz-adv-x="476" 
d="M355 174v260h61v-434h-61v80q-16 -40 -56 -66t-88 -26q-80 0 -118 47t-38 130v269h61v-271q0 -59 28.5 -93t82.5 -34q53 0 90.5 38.5t37.5 99.5zM145 539v81h65v-81h-65zM269 539v81h65v-81h-65z" />
    <glyph glyph-name="yacute" unicode="&#xfd;" horiz-adv-x="441" 
d="M181 -170h-60l73 173l-184 431h64l149 -357h4l144 357h60zM243 508h-42l54 122h85z" />
    <glyph glyph-name="thorn" unicode="&#xfe;" horiz-adv-x="513" 
d="M119 232v-30q0 -76 43.5 -120t110.5 -44q68 0 106.5 48t38.5 131t-38.5 131t-106.5 48q-67 0 -110.5 -44t-43.5 -120zM121 95v-265h-61v800h61v-292q15 45 58 76.5t102 31.5q94 0 147.5 -65t53.5 -164t-53.5 -164t-147.5 -65q-60 0 -102.5 31t-57.5 76z" />
    <glyph glyph-name="ydieresis" unicode="&#xff;" horiz-adv-x="441" 
d="M181 -170h-60l73 173l-184 431h64l149 -357h4l144 357h60zM126 539v81h65v-81h-65zM250 539v81h65v-81h-65z" />
    <glyph glyph-name="Amacron" unicode="&#x100;" horiz-adv-x="623" 
d="M274 630h68l266 -630h-67l-85 203h-298l-81 -203h-62zM303 562l-123 -306h254l-127 306h-4zM178 686v51h251v-51h-251z" />
    <glyph glyph-name="amacron" unicode="&#x101;" horiz-adv-x="478" 
d="M336 197v27l-106 -23q-68 -15 -98 -33t-30 -58q0 -33 21.5 -54t62.5 -21q65 0 107.5 45t42.5 117zM394 282v-209q0 -34 36 -34q20 0 39 11v-33q-23 -26 -57 -26q-32 0 -53.5 25.5t-22.5 66.5q-18 -40 -62.5 -67.5t-98.5 -27.5q-61 0 -98 32t-37 88q0 58 45.5 88.5
t134.5 48.5l116 24v22q0 50 -28 78.5t-79 28.5q-98 0 -124 -97l-52 10q13 60 59.5 97.5t115.5 37.5q81 0 123.5 -42t42.5 -122zM109 522v51h251v-51h-251z" />
    <glyph glyph-name="Abreve" unicode="&#x102;" horiz-adv-x="623" 
d="M274 630h68l266 -630h-67l-85 203h-298l-81 -203h-62zM303 562l-123 -306h254l-127 306h-4zM303 675q-109 0 -109 125h49q0 -77 60 -77t60 77h49q0 -125 -109 -125z" />
    <glyph glyph-name="abreve" unicode="&#x103;" horiz-adv-x="478" 
d="M336 197v27l-106 -23q-68 -15 -98 -33t-30 -58q0 -33 21.5 -54t62.5 -21q65 0 107.5 45t42.5 117zM394 282v-209q0 -34 36 -34q20 0 39 11v-33q-23 -26 -57 -26q-32 0 -53.5 25.5t-22.5 66.5q-18 -40 -62.5 -67.5t-98.5 -27.5q-61 0 -98 32t-37 88q0 58 45.5 88.5
t134.5 48.5l116 24v22q0 50 -28 78.5t-79 28.5q-98 0 -124 -97l-52 10q13 60 59.5 97.5t115.5 37.5q81 0 123.5 -42t42.5 -122zM234 505q-109 0 -109 125h49q0 -77 60 -77t60 77h49q0 -125 -109 -125z" />
    <glyph glyph-name="Aogonek" unicode="&#x104;" horiz-adv-x="623" 
d="M274 630h68l266 -630q-97 -59 -97 -101q0 -31 39 -31q21 0 55 17v-38q-34 -22 -73 -22q-32 0 -51.5 17t-19.5 49q0 30 20.5 55t59.5 54l-1 2l-84 201h-298l-81 -203h-62zM303 562l-123 -306h254l-127 306h-4z" />
    <glyph glyph-name="aogonek" unicode="&#x105;" horiz-adv-x="478" 
d="M394 282v-209q0 -34 36 -34q20 0 39 11v-36q-2 -2 -27 -21.5t-34.5 -29t-21 -28.5t-11.5 -36q0 -31 39 -31q21 0 55 17v-38q-34 -22 -73 -22q-32 0 -51.5 17t-19.5 49q0 54 71 102q-26 5 -42.5 29.5t-17.5 60.5q-18 -40 -62.5 -67.5t-98.5 -27.5q-61 0 -98 32t-37 88
q0 58 45.5 88.5t134.5 48.5l116 24v22q0 50 -28 78.5t-79 28.5q-98 0 -124 -97l-52 10q13 60 59.5 97.5t115.5 37.5q81 0 123.5 -42t42.5 -122zM336 197v27l-106 -23q-68 -15 -98 -33t-30 -58q0 -33 21.5 -54t62.5 -21q65 0 107.5 45t42.5 117z" />
    <glyph glyph-name="Cacute" unicode="&#x106;" horiz-adv-x="665" 
d="M35 315q0 144 87.5 235.5t218.5 91.5q130 0 205.5 -73t83.5 -198l-61 -3q-5 98 -65.5 159.5t-162.5 61.5q-105 0 -172.5 -74.5t-67.5 -199.5t67.5 -199.5t172.5 -74.5q102 0 162.5 61.5t65.5 159.5l61 -3q-8 -125 -83.5 -198t-205.5 -73q-131 0 -218.5 91.5t-87.5 235.5z
M369 678h-42l54 122h85z" />
    <glyph glyph-name="cacute" unicode="&#x107;" horiz-adv-x="483" 
d="M31 217q0 103 61 166t158 63q91 0 143.5 -53.5t58.5 -136.5l-56 -4q-5 64 -43.5 103.5t-104.5 39.5q-68 0 -110.5 -49t-42.5 -129t42.5 -129t110.5 -49q66 0 104.5 40t43.5 105l56 -6q-6 -83 -58.5 -136.5t-143.5 -53.5q-97 0 -158 63t-61 166zM273 508h-42l54 122h85z
" />
    <glyph glyph-name="Ccircumflex" unicode="&#x108;" horiz-adv-x="665" 
d="M35 315q0 144 87.5 235.5t218.5 91.5q130 0 205.5 -73t83.5 -198l-61 -3q-5 98 -65.5 159.5t-162.5 61.5q-105 0 -172.5 -74.5t-67.5 -199.5t67.5 -199.5t172.5 -74.5q102 0 162.5 61.5t65.5 159.5l61 -3q-8 -125 -83.5 -198t-205.5 -73q-131 0 -218.5 91.5t-87.5 235.5z
M308 800h80l79 -122h-49l-70 80l-70 -80h-49z" />
    <glyph glyph-name="ccircumflex" unicode="&#x109;" horiz-adv-x="483" 
d="M31 217q0 103 61 166t158 63q91 0 143.5 -53.5t58.5 -136.5l-56 -4q-5 64 -43.5 103.5t-104.5 39.5q-68 0 -110.5 -49t-42.5 -129t42.5 -129t110.5 -49q66 0 104.5 40t43.5 105l56 -6q-6 -83 -58.5 -136.5t-143.5 -53.5q-97 0 -158 63t-61 166zM210 630h80l79 -122h-49
l-70 80l-70 -80h-49z" />
    <glyph glyph-name="Cdotaccent" unicode="&#x10a;" horiz-adv-x="665" 
d="M35 315q0 144 87.5 235.5t218.5 91.5q130 0 205.5 -73t83.5 -198l-61 -3q-5 98 -65.5 159.5t-162.5 61.5q-105 0 -172.5 -74.5t-67.5 -199.5t67.5 -199.5t172.5 -74.5q102 0 162.5 61.5t65.5 159.5l61 -3q-8 -125 -83.5 -198t-205.5 -73q-131 0 -218.5 91.5t-87.5 235.5z
M316 684v81h65v-81h-65z" />
    <glyph glyph-name="cdotaccent" unicode="&#x10b;" horiz-adv-x="483" 
d="M31 217q0 103 61 166t158 63q91 0 143.5 -53.5t58.5 -136.5l-56 -4q-5 64 -43.5 103.5t-104.5 39.5q-68 0 -110.5 -49t-42.5 -129t42.5 -129t110.5 -49q66 0 104.5 40t43.5 105l56 -6q-6 -83 -58.5 -136.5t-143.5 -53.5q-97 0 -158 63t-61 166zM218 549v81h65v-81h-65z
" />
    <glyph glyph-name="Ccaron" unicode="&#x10c;" horiz-adv-x="665" 
d="M35 315q0 144 87.5 235.5t218.5 91.5q130 0 205.5 -73t83.5 -198l-61 -3q-5 98 -65.5 159.5t-162.5 61.5q-105 0 -172.5 -74.5t-67.5 -199.5t67.5 -199.5t172.5 -74.5q102 0 162.5 61.5t65.5 159.5l61 -3q-8 -125 -83.5 -198t-205.5 -73q-131 0 -218.5 91.5t-87.5 235.5z
M388 678h-80l-79 122h49l70 -80l70 80h49z" />
    <glyph glyph-name="ccaron" unicode="&#x10d;" horiz-adv-x="483" 
d="M31 217q0 103 61 166t158 63q91 0 143.5 -53.5t58.5 -136.5l-56 -4q-5 64 -43.5 103.5t-104.5 39.5q-68 0 -110.5 -49t-42.5 -129t42.5 -129t110.5 -49q66 0 104.5 40t43.5 105l56 -6q-6 -83 -58.5 -136.5t-143.5 -53.5q-97 0 -158 63t-61 166zM290 508h-80l-79 122h49
l70 -80l70 80h49z" />
    <glyph glyph-name="Dcaron" unicode="&#x10e;" horiz-adv-x="640" 
d="M128 53h156q123 0 189 69t66 193t-66 193t-189 69h-156v-524zM65 0v630h222q147 0 232.5 -84t85.5 -231t-85.5 -231t-232.5 -84h-222zM337 678h-80l-79 122h49l70 -80l70 80h49z" />
    <glyph glyph-name="dcaron" unicode="&#x10f;" horiz-adv-x="513" 
d="M394 202v30q0 76 -43.5 120t-110.5 44q-68 0 -106.5 -48t-38.5 -131t38.5 -131t106.5 -48q67 0 110.5 44t43.5 120zM392 0v95q-15 -45 -57.5 -76t-102.5 -31q-94 0 -147.5 65t-53.5 164t53.5 164t147.5 65q59 0 102 -31.5t58 -76.5v292h61v-630h-61zM529 503h-32l16 127
h75z" />
    <glyph glyph-name="Dcroat" unicode="&#x110;" horiz-adv-x="658" 
d="M6 300v53h77v277h222q147 0 232.5 -84t85.5 -231t-85.5 -231t-232.5 -84h-222v300h-77zM146 53h156q123 0 189 69t66 193t-66 193t-189 69h-156v-224h181v-53h-181v-247z" />
    <glyph glyph-name="dcroat" unicode="&#x111;" horiz-adv-x="513" 
d="M392 0v95q-15 -45 -57.5 -76t-102.5 -31q-94 0 -147.5 65t-53.5 164t53.5 164t147.5 65q59 0 102 -31.5t58 -76.5v162h-149v44h149v86h61v-86h60v-44h-60v-500h-61zM394 202v30q0 76 -43.5 120t-110.5 44q-68 0 -106.5 -48t-38.5 -131t38.5 -131t106.5 -48q67 0 110.5 44
t43.5 120z" />
    <glyph glyph-name="Emacron" unicode="&#x112;" horiz-adv-x="541" 
d="M501 53v-53h-436v630h427v-53h-366v-224h293v-53h-293v-247h375zM158 686v51h251v-51h-251z" />
    <glyph glyph-name="emacron" unicode="&#x113;" horiz-adv-x="482" 
d="M398 155l52 -7q-16 -75 -68 -117.5t-131 -42.5q-96 0 -158 62t-62 161q0 102 61.5 168.5t154.5 66.5q98 0 151 -61.5t53 -154.5v-28h-357q3 -72 47.5 -118t109.5 -46q120 0 147 117zM95 245h291q-2 65 -38 109t-101 44q-62 0 -103 -44.5t-49 -108.5zM122 522v51h251v-51
h-251z" />
    <glyph glyph-name="Ebreve" unicode="&#x114;" horiz-adv-x="541" 
d="M501 53v-53h-436v630h427v-53h-366v-224h293v-53h-293v-247h375zM283 675q-109 0 -109 125h49q0 -77 60 -77t60 77h49q0 -125 -109 -125z" />
    <glyph glyph-name="ebreve" unicode="&#x115;" horiz-adv-x="482" 
d="M398 155l52 -7q-16 -75 -68 -117.5t-131 -42.5q-96 0 -158 62t-62 161q0 102 61.5 168.5t154.5 66.5q98 0 151 -61.5t53 -154.5v-28h-357q3 -72 47.5 -118t109.5 -46q120 0 147 117zM95 245h291q-2 65 -38 109t-101 44q-62 0 -103 -44.5t-49 -108.5zM246 505
q-109 0 -109 125h49q0 -77 60 -77t60 77h49q0 -125 -109 -125z" />
    <glyph glyph-name="Edotaccent" unicode="&#x116;" horiz-adv-x="541" 
d="M501 53v-53h-436v630h427v-53h-366v-224h293v-53h-293v-247h375zM251 684v81h65v-81h-65z" />
    <glyph glyph-name="edotaccent" unicode="&#x117;" horiz-adv-x="482" 
d="M398 155l52 -7q-16 -75 -68 -117.5t-131 -42.5q-96 0 -158 62t-62 161q0 102 61.5 168.5t154.5 66.5q98 0 151 -61.5t53 -154.5v-28h-357q3 -72 47.5 -118t109.5 -46q120 0 147 117zM95 245h291q-2 65 -38 109t-101 44q-62 0 -103 -44.5t-49 -108.5zM215 549v81h65v-81
h-65z" />
    <glyph glyph-name="Eogonek" unicode="&#x118;" horiz-adv-x="541" 
d="M501 53v-53h-63q-40 -36 -56 -57.5t-16 -43.5q0 -31 39 -31q21 0 55 17v-38q-34 -22 -73 -22q-32 0 -51.5 17t-19.5 49q0 30 20.5 55t59.5 54h-331v630h427v-53h-366v-224h293v-53h-293v-247h375z" />
    <glyph glyph-name="eogonek" unicode="&#x119;" horiz-adv-x="482" 
d="M398 155l52 -7q-18 -82 -99 -137q-84 -56 -84 -112q0 -31 39 -31q21 0 55 17v-38q-34 -22 -73 -22q-32 0 -51.5 17t-19.5 49q0 47 68 100q-17 -3 -34 -3q-96 0 -158 62t-62 161q0 102 61.5 168.5t154.5 66.5q98 0 151 -61.5t53 -154.5v-28h-357q3 -72 47.5 -118
t109.5 -46q120 0 147 117zM95 245h291q-2 65 -38 109t-101 44q-62 0 -103 -44.5t-49 -108.5z" />
    <glyph glyph-name="Ecaron" unicode="&#x11a;" horiz-adv-x="541" 
d="M501 53v-53h-436v630h427v-53h-366v-224h293v-53h-293v-247h375zM323 678h-80l-79 122h49l70 -80l70 80h49z" />
    <glyph glyph-name="ecaron" unicode="&#x11b;" horiz-adv-x="482" 
d="M398 155l52 -7q-16 -75 -68 -117.5t-131 -42.5q-96 0 -158 62t-62 161q0 102 61.5 168.5t154.5 66.5q98 0 151 -61.5t53 -154.5v-28h-357q3 -72 47.5 -118t109.5 -46q120 0 147 117zM95 245h291q-2 65 -38 109t-101 44q-62 0 -103 -44.5t-49 -108.5zM287 508h-80l-79 122
h49l70 -80l70 80h49z" />
    <glyph glyph-name="Gcircumflex" unicode="&#x11c;" horiz-adv-x="685" 
d="M342 -12q-135 0 -221 90.5t-86 236.5q0 144 87 235.5t217 91.5q131 0 205.5 -68.5t82.5 -192.5l-61 -4q-5 97 -64.5 154.5t-162.5 57.5q-105 0 -171.5 -75t-66.5 -200t67.5 -199t176.5 -74q100 0 160 58.5t65 153.5h-206v53h262v-306h-59v124q-19 -63 -82 -99.5
t-143 -36.5zM309 800h80l79 -122h-49l-70 80l-70 -80h-49z" />
    <glyph glyph-name="gcircumflex" unicode="&#x11d;" horiz-adv-x="470" 
d="M404 299q0 -67 -49 -107t-127 -40q-56 0 -95 19q-36 -18 -36 -50q0 -41 57 -41h168q68 0 105 -31.5t37 -83.5q0 -75 -69.5 -111t-174.5 -36q-91 0 -150.5 31t-59.5 89q0 39 24.5 64t67.5 34q-56 17 -56 71q0 49 61 80q-54 40 -54 112q0 67 48.5 107t126.5 40
q87 0 135 -48q39 59 107 59v-59q-52 0 -89 -21q23 -34 23 -78zM72 -47q0 -46 39.5 -68.5t108.5 -22.5q185 0 185 101q0 63 -97 63h-137q-99 0 -99 -73zM342 298q0 50 -30 78t-84 28q-53 0 -82.5 -28t-29.5 -78q0 -49 29.5 -77t82.5 -28q54 0 84 27.5t30 77.5zM200 630h80
l79 -122h-49l-70 80l-70 -80h-49z" />
    <glyph glyph-name="Gbreve" unicode="&#x11e;" horiz-adv-x="685" 
d="M342 -12q-135 0 -221 90.5t-86 236.5q0 144 87 235.5t217 91.5q131 0 205.5 -68.5t82.5 -192.5l-61 -4q-5 97 -64.5 154.5t-162.5 57.5q-105 0 -171.5 -75t-66.5 -200t67.5 -199t176.5 -74q100 0 160 58.5t65 153.5h-206v53h262v-306h-59v124q-19 -63 -82 -99.5
t-143 -36.5zM349 675q-109 0 -109 125h49q0 -77 60 -77t60 77h49q0 -125 -109 -125z" />
    <glyph glyph-name="gbreve" unicode="&#x11f;" horiz-adv-x="470" 
d="M404 299q0 -67 -49 -107t-127 -40q-56 0 -95 19q-36 -18 -36 -50q0 -41 57 -41h168q68 0 105 -31.5t37 -83.5q0 -75 -69.5 -111t-174.5 -36q-91 0 -150.5 31t-59.5 89q0 39 24.5 64t67.5 34q-56 17 -56 71q0 49 61 80q-54 40 -54 112q0 67 48.5 107t126.5 40
q87 0 135 -48q39 59 107 59v-59q-52 0 -89 -21q23 -34 23 -78zM72 -47q0 -46 39.5 -68.5t108.5 -22.5q185 0 185 101q0 63 -97 63h-137q-99 0 -99 -73zM342 298q0 50 -30 78t-84 28q-53 0 -82.5 -28t-29.5 -78q0 -49 29.5 -77t82.5 -28q54 0 84 27.5t30 77.5zM240 505
q-109 0 -109 125h49q0 -77 60 -77t60 77h49q0 -125 -109 -125z" />
    <glyph glyph-name="Gdotaccent" unicode="&#x120;" horiz-adv-x="685" 
d="M342 -12q-135 0 -221 90.5t-86 236.5q0 144 87 235.5t217 91.5q131 0 205.5 -68.5t82.5 -192.5l-61 -4q-5 97 -64.5 154.5t-162.5 57.5q-105 0 -171.5 -75t-66.5 -200t67.5 -199t176.5 -74q100 0 160 58.5t65 153.5h-206v53h262v-306h-59v124q-19 -63 -82 -99.5
t-143 -36.5zM317 684v81h65v-81h-65z" />
    <glyph glyph-name="gdotaccent" unicode="&#x121;" horiz-adv-x="470" 
d="M404 299q0 -67 -49 -107t-127 -40q-56 0 -95 19q-36 -18 -36 -50q0 -41 57 -41h168q68 0 105 -31.5t37 -83.5q0 -75 -69.5 -111t-174.5 -36q-91 0 -150.5 31t-59.5 89q0 39 24.5 64t67.5 34q-56 17 -56 71q0 49 61 80q-54 40 -54 112q0 67 48.5 107t126.5 40
q87 0 135 -48q39 59 107 59v-59q-52 0 -89 -21q23 -34 23 -78zM72 -47q0 -46 39.5 -68.5t108.5 -22.5q185 0 185 101q0 63 -97 63h-137q-99 0 -99 -73zM342 298q0 50 -30 78t-84 28q-53 0 -82.5 -28t-29.5 -78q0 -49 29.5 -77t82.5 -28q54 0 84 27.5t30 77.5zM208 549v81h65
v-81h-65z" />
    <glyph glyph-name="Gcommaaccent" unicode="&#x122;" horiz-adv-x="685" 
d="M342 -12q-135 0 -221 90.5t-86 236.5q0 144 87 235.5t217 91.5q131 0 205.5 -68.5t82.5 -192.5l-61 -4q-5 97 -64.5 154.5t-162.5 57.5q-105 0 -171.5 -75t-66.5 -200t67.5 -199t176.5 -74q100 0 160 58.5t65 153.5h-206v53h262v-306h-59v124q-19 -63 -82 -99.5
t-143 -36.5zM311 -116v60h76v-49q0 -81 -76 -81v30q19 0 26.5 9t8.5 31h-35z" />
    <glyph glyph-name="gcommaaccent" unicode="&#x123;" horiz-adv-x="470" 
d="M404 299q0 -67 -49 -107t-127 -40q-56 0 -95 19q-36 -18 -36 -50q0 -41 57 -41h168q68 0 105 -31.5t37 -83.5q0 -75 -69.5 -111t-174.5 -36q-91 0 -150.5 31t-59.5 89q0 39 24.5 64t67.5 34q-56 17 -56 71q0 49 61 80q-54 40 -54 112q0 67 48.5 107t126.5 40
q87 0 135 -48q39 59 107 59v-59q-52 0 -89 -21q23 -34 23 -78zM72 -47q0 -46 39.5 -68.5t108.5 -22.5q185 0 185 101q0 63 -97 63h-137q-99 0 -99 -73zM342 298q0 50 -30 78t-84 28q-53 0 -82.5 -28t-29.5 -78q0 -49 29.5 -77t82.5 -28q54 0 84 27.5t30 77.5zM278 589v-60
h-76v49q0 81 76 81v-30q-19 0 -26.5 -9t-8.5 -31h35z" />
    <glyph glyph-name="Hcircumflex" unicode="&#x124;" horiz-adv-x="650" 
d="M128 0h-63v630h63v-277h394v277h63v-630h-63v300h-394v-300zM285 800h80l79 -122h-49l-70 80l-70 -80h-49z" />
    <glyph glyph-name="hcircumflex" unicode="&#x125;" horiz-adv-x="481" 
d="M121 260v-260h-61v630h61v-276q16 40 57 66t89 26q81 0 120 -47.5t39 -129.5v-269h-61v271q0 59 -29.5 93t-84.5 34q-54 0 -92 -38.5t-38 -99.5zM205 800h80l79 -122h-49l-70 80l-70 -80h-49z" />
    <glyph glyph-name="Hbar" unicode="&#x126;" horiz-adv-x="686" 
d="M6 446v53h77v131h63v-131h394v131h63v-131h77v-53h-77v-446h-63v280h-394v-280h-63v446h-77zM146 333h394v113h-394v-113z" />
    <glyph glyph-name="hbar" unicode="&#x127;" horiz-adv-x="481" 
d="M0 500v44h60v86h61v-86h149v-44h-149v-146q16 40 57 66t89 26q81 0 120 -47.5t39 -129.5v-269h-61v271q0 59 -29.5 93t-84.5 34q-54 0 -92 -38.5t-38 -99.5v-260h-61v500h-60z" />
    <glyph glyph-name="Itilde" unicode="&#x128;" horiz-adv-x="193" 
d="M11 676h-43q0 114 73 114q27 0 62.5 -32.5t51.5 -32.5q13 0 19.5 8.5t8 19t2.5 34.5h42q0 -114 -72 -114q-27 0 -62.5 32t-51.5 32q-13 0 -20 -8.5t-8 -19t-2 -33.5zM65 630h63v-630h-63v630z" />
    <glyph glyph-name="itilde" unicode="&#x129;" horiz-adv-x="181" 
d="M6 519h-41q0 114 70 114q26 0 60 -32t50 -32q22 0 26 27q2 8 3 34h41q0 -53 -18 -83.5t-52 -30.5q-26 0 -60 32.5t-50 32.5q-10 0 -15.5 -3.5t-8.5 -14t-3.5 -17.5t-1.5 -27zM60 434h61v-434h-61v434z" />
    <glyph glyph-name="Imacron" unicode="&#x12a;" horiz-adv-x="193" 
d="M65 630h63v-630h-63v630zM-18 686v51h229v-51h-229z" />
    <glyph glyph-name="imacron" unicode="&#x12b;" horiz-adv-x="181" 
d="M60 434h61v-434h-61v434zM-13 522v51h207v-51h-207z" />
    <glyph glyph-name="Ibreve" unicode="&#x12c;" horiz-adv-x="193" 
d="M65 630h63v-630h-63v630zM96 675q-109 0 -109 125h49q0 -77 60 -77t60 77h49q0 -125 -109 -125z" />
    <glyph glyph-name="ibreve" unicode="&#x12d;" horiz-adv-x="181" 
d="M60 434h61v-434h-61v434zM90 505q-109 0 -109 125h49q0 -77 60 -77t60 77h49q0 -125 -109 -125z" />
    <glyph glyph-name="Iogonek" unicode="&#x12e;" horiz-adv-x="193" 
d="M65 630h63v-630q-52 -33 -72.5 -55.5t-20.5 -45.5q0 -31 39 -31q21 0 55 17v-38q-34 -22 -73 -22q-32 0 -51.5 17t-19.5 49q0 30 20.5 55t59.5 54v630z" />
    <glyph glyph-name="iogonek" unicode="&#x12f;" horiz-adv-x="181" 
d="M60 434h61v-434q-51 -33 -71 -55.5t-20 -45.5q0 -31 39 -31q21 0 55 17v-38q-34 -22 -73 -22q-32 0 -51.5 17t-19.5 49q0 30 20.5 55t59.5 54v434zM58 549v81h65v-81h-65z" />
    <glyph glyph-name="Idotaccent" unicode="&#x130;" horiz-adv-x="193" 
d="M65 630h63v-630h-63v630zM64 684v81h65v-81h-65z" />
    <glyph glyph-name="dotlessi" unicode="&#x131;" horiz-adv-x="181" 
d="M60 434h61v-434h-61v434z" />
    <glyph glyph-name="IJ" unicode="&#x132;" horiz-adv-x="688" 
d="M65 630h63v-630h-63v630zM570 630h63v-419q0 -108 -56 -165.5t-154 -57.5q-96 0 -154 56.5t-63 163.5l59 5q6 -83 46.5 -128.5t113.5 -45.5q145 0 145 170v421z" />
    <glyph glyph-name="ij" unicode="&#x133;" horiz-adv-x="362" 
d="M60 434h61v-434h-61v434zM58 549v81h65v-81h-65zM302 434v-507q0 -109 -102 -109q-52 0 -89 32l19 40q35 -23 69 -23q42 0 42 50v517h61zM239 549v81h65v-81h-65z" />
    <glyph glyph-name="Jcircumflex" unicode="&#x134;" horiz-adv-x="495" 
d="M377 630h63v-419q0 -108 -56 -165.5t-154 -57.5q-96 0 -154 56.5t-63 163.5l59 5q6 -83 46.5 -128.5t113.5 -45.5q145 0 145 170v421zM370 800h80l79 -122h-49l-70 80l-70 -80h-49z" />
    <glyph glyph-name="jcircumflex" unicode="&#x135;" horiz-adv-x="181" 
d="M121 434v-507q0 -109 -102 -109q-52 0 -89 32l19 40q35 -23 69 -23q42 0 42 50v517h61zM49 630h80l79 -122h-49l-70 80l-70 -80h-49z" />
    <glyph glyph-name="Kcommaaccent" unicode="&#x136;" horiz-adv-x="568" 
d="M568 0h-78l-283 312l-79 -78v-234h-63v630h63v-327l328 327h77l-279 -279zM252 -116v60h76v-49q0 -81 -76 -81v30q19 0 26.5 9t8.5 31h-35z" />
    <glyph glyph-name="kcommaaccent" unicode="&#x137;" horiz-adv-x="460" 
d="M121 163v-163h-61v630h61v-406l239 210h80l-206 -180l216 -254h-74l-187 220zM199 -116v60h76v-49q0 -81 -76 -81v30q19 0 26.5 9t8.5 31h-35z" />
    <glyph glyph-name="kgreenlandic" unicode="&#x138;" horiz-adv-x="460" 
d="M121 163v-163h-61v434h61v-210l239 210h80l-206 -180l216 -254h-74l-187 220z" />
    <glyph glyph-name="Lacute" unicode="&#x139;" horiz-adv-x="515" 
d="M65 630h63v-577h362v-53h-425v630zM118 678h-42l54 122h85z" />
    <glyph glyph-name="lacute" unicode="&#x13a;" horiz-adv-x="181" 
d="M60 630h61v-630h-61v630zM111 678h-42l54 122h85z" />
    <glyph glyph-name="Lcommaaccent" unicode="&#x13b;" horiz-adv-x="515" 
d="M65 630h63v-577h362v-53h-425v630zM239 -116v60h76v-49q0 -81 -76 -81v30q19 0 26.5 9t8.5 31h-35z" />
    <glyph glyph-name="lcommaaccent" unicode="&#x13c;" horiz-adv-x="181" 
d="M60 630h61v-630h-61v630zM52 -116v60h76v-49q0 -81 -76 -81v30q19 0 26.5 9t8.5 31h-35z" />
    <glyph glyph-name="Lcaron" unicode="&#x13d;" horiz-adv-x="515" 
d="M65 630h63v-577h362v-53h-425v630zM304 503h-32l16 127h75z" />
    <glyph glyph-name="lcaron" unicode="&#x13e;" horiz-adv-x="181" 
d="M60 630h61v-630h-61v630zM194 503h-32l16 127h75z" />
    <glyph glyph-name="Ldot" unicode="&#x13f;" horiz-adv-x="515" 
d="M65 630h63v-577h362v-53h-425v630zM360 285v81h65v-81h-65z" />
    <glyph glyph-name="ldot" unicode="&#x140;" horiz-adv-x="278" 
d="M60 630h61v-630h-61v630zM193 275v81h65v-81h-65z" />
    <glyph glyph-name="Lslash" unicode="&#x141;" horiz-adv-x="515" 
d="M77 630h63v-314l188 88v-56l-188 -88v-207h362v-53h-425v232l-77 -35v56l77 35v342z" />
    <glyph glyph-name="lslash" unicode="&#x142;" horiz-adv-x="221" 
d="M80 630h61v-242l70 46v-55l-70 -45v-334h-61v298l-70 -45v55l70 45v277z" />
    <glyph glyph-name="Nacute" unicode="&#x143;" horiz-adv-x="632" 
d="M135 630l372 -519v519h60v-630h-50l-392 543v-543h-60v630h70zM345 678h-42l54 122h85z" />
    <glyph glyph-name="nacute" unicode="&#x144;" horiz-adv-x="481" 
d="M121 260v-260h-61v434h61v-80q16 40 57 66t89 26q81 0 120 -47.5t39 -129.5v-269h-61v271q0 59 -29.5 93t-84.5 34q-54 0 -92 -38.5t-38 -99.5zM266 508h-42l54 122h85z" />
    <glyph glyph-name="Ncommaaccent" unicode="&#x145;" horiz-adv-x="632" 
d="M135 630l372 -519v519h60v-630h-50l-392 543v-543h-60v630h70zM286 -116v60h76v-49q0 -81 -76 -81v30q19 0 26.5 9t8.5 31h-35z" />
    <glyph glyph-name="ncommaaccent" unicode="&#x146;" horiz-adv-x="481" 
d="M121 260v-260h-61v434h61v-80q16 40 57 66t89 26q81 0 120 -47.5t39 -129.5v-269h-61v271q0 59 -29.5 93t-84.5 34q-54 0 -92 -38.5t-38 -99.5zM215 -116v60h76v-49q0 -81 -76 -81v30q19 0 26.5 9t8.5 31h-35z" />
    <glyph glyph-name="Ncaron" unicode="&#x147;" horiz-adv-x="632" 
d="M135 630l372 -519v519h60v-630h-50l-392 543v-543h-60v630h70zM364 678h-80l-79 122h49l70 -80l70 80h49z" />
    <glyph glyph-name="ncaron" unicode="&#x148;" horiz-adv-x="481" 
d="M121 260v-260h-61v434h61v-80q16 40 57 66t89 26q81 0 120 -47.5t39 -129.5v-269h-61v271q0 59 -29.5 93t-84.5 34q-54 0 -92 -38.5t-38 -99.5zM286 508h-80l-79 122h49l70 -80l70 80h49z" />
    <glyph glyph-name="Eng" unicode="&#x14a;" horiz-adv-x="632" 
d="M274 -99l42 31q43 -62 108 -62q47 0 65 29.5t18 104.5l-382 539v-543h-60v630h70l372 -529v529h60v-655q0 -157 -141 -157q-106 0 -152 83z" />
    <glyph glyph-name="eng" unicode="&#x14b;" horiz-adv-x="481" 
d="M365 -83v354q0 59 -29.5 93t-84.5 34q-54 0 -92 -38.5t-38 -99.5v-260h-61v434h61v-80q16 40 57 66t89 26q81 0 120 -47.5t39 -129.5v-342q0 -109 -102 -109q-52 0 -89 32l19 40q35 -23 69 -23q42 0 42 50z" />
    <glyph glyph-name="Omacron" unicode="&#x14c;" horiz-adv-x="688" 
d="M653 315q0 -146 -85.5 -236.5t-223.5 -90.5t-223.5 90.5t-85.5 236.5t85.5 236.5t223.5 90.5t223.5 -90.5t85.5 -236.5zM587 315q0 125 -66 199.5t-177 74.5t-177 -74.5t-66 -199.5t66 -199.5t177 -74.5t177 74.5t66 199.5zM219 686v51h251v-51h-251z" />
    <glyph glyph-name="omacron" unicode="&#x14d;" horiz-adv-x="497" 
d="M95 217q0 -81 41 -131t112 -50q72 0 113 50t41 131t-41 131t-113 50q-71 0 -112 -50t-41 -131zM466 217q0 -100 -62 -164.5t-156 -64.5q-93 0 -155 64.5t-62 164.5t62 164.5t155 64.5q94 0 156 -64.5t62 -164.5zM123 522v51h251v-51h-251z" />
    <glyph glyph-name="Obreve" unicode="&#x14e;" horiz-adv-x="688" 
d="M653 315q0 -146 -85.5 -236.5t-223.5 -90.5t-223.5 90.5t-85.5 236.5t85.5 236.5t223.5 90.5t223.5 -90.5t85.5 -236.5zM587 315q0 125 -66 199.5t-177 74.5t-177 -74.5t-66 -199.5t66 -199.5t177 -74.5t177 74.5t66 199.5zM344 675q-109 0 -109 125h49q0 -77 60 -77
t60 77h49q0 -125 -109 -125z" />
    <glyph glyph-name="obreve" unicode="&#x14f;" horiz-adv-x="497" 
d="M95 217q0 -81 41 -131t112 -50q72 0 113 50t41 131t-41 131t-113 50q-71 0 -112 -50t-41 -131zM466 217q0 -100 -62 -164.5t-156 -64.5q-93 0 -155 64.5t-62 164.5t62 164.5t155 64.5q94 0 156 -64.5t62 -164.5zM248 505q-109 0 -109 125h49q0 -77 60 -77t60 77h49
q0 -125 -109 -125z" />
    <glyph glyph-name="Ohungarumlaut" unicode="&#x150;" horiz-adv-x="688" 
d="M653 315q0 -146 -85.5 -236.5t-223.5 -90.5t-223.5 90.5t-85.5 236.5t85.5 236.5t223.5 90.5t223.5 -90.5t85.5 -236.5zM587 315q0 125 -66 199.5t-177 74.5t-177 -74.5t-66 -199.5t66 -199.5t177 -74.5t177 74.5t66 199.5zM308 678h-37l54 122h80zM428 678h-37l54 122
h80z" />
    <glyph glyph-name="ohungarumlaut" unicode="&#x151;" horiz-adv-x="497" 
d="M95 217q0 -81 41 -131t112 -50q72 0 113 50t41 131t-41 131t-113 50q-71 0 -112 -50t-41 -131zM466 217q0 -100 -62 -164.5t-156 -64.5q-93 0 -155 64.5t-62 164.5t62 164.5t155 64.5q94 0 156 -64.5t62 -164.5zM206 508h-37l54 122h80zM326 508h-37l54 122h80z" />
    <glyph glyph-name="OE" unicode="&#x152;" horiz-adv-x="948" 
d="M908 53v-53h-555q-147 0 -232.5 84t-85.5 231t85.5 231t232.5 84h546v-53h-366v-224h293v-53h-293v-247h375zM472 577h-116q-123 0 -189 -69t-66 -193t66 -193t189 -69h116v524z" />
    <glyph glyph-name="oe" unicode="&#x153;" horiz-adv-x="846" 
d="M248 446q59 0 107 -28t76 -77q60 105 180 105q98 0 151 -61.5t53 -154.5v-28h-357q3 -72 47.5 -118t109.5 -46q120 0 147 117l52 -7q-16 -75 -68 -117.5t-131 -42.5q-127 0 -186 102q-62 -102 -181 -102q-93 0 -155 64.5t-62 164.5t62 164.5t155 64.5zM95 217
q0 -81 41 -131t112 -50q72 0 113 50t41 131t-41 131t-113 50q-71 0 -112 -50t-41 -131zM459 245h291q-2 65 -38 109t-101 44q-62 0 -103 -44.5t-49 -108.5z" />
    <glyph glyph-name="Racute" unicode="&#x154;" horiz-adv-x="588" 
d="M548 0h-68q-18 26 -26 142q-7 124 -131 124h-196v-266h-62v630h238q116 0 175.5 -49t59.5 -133q0 -69 -41 -109t-104 -47q113 -21 123 -139q7 -79 12 -108t20 -45zM127 318h178q168 0 168 130q0 61 -41.5 95t-126.5 34h-178v-259zM315 678h-42l54 122h85z" />
    <glyph glyph-name="racute" unicode="&#x155;" horiz-adv-x="313" 
d="M308 426l-7 -53q-33 17 -66 17q-48 0 -81 -43.5t-33 -108.5v-238h-61v434h61v-91q14 42 47 72.5t78 30.5q39 0 62 -20zM203 508h-42l54 122h85z" />
    <glyph glyph-name="Rcommaaccent" unicode="&#x156;" horiz-adv-x="588" 
d="M548 0h-68q-18 26 -26 142q-7 124 -131 124h-196v-266h-62v630h238q116 0 175.5 -49t59.5 -133q0 -69 -41 -109t-104 -47q113 -21 123 -139q7 -79 12 -108t20 -45zM127 318h178q168 0 168 130q0 61 -41.5 95t-126.5 34h-178v-259zM256 -116v60h76v-49q0 -81 -76 -81v30
q19 0 26.5 9t8.5 31h-35z" />
    <glyph glyph-name="rcommaaccent" unicode="&#x157;" horiz-adv-x="313" 
d="M308 426l-7 -53q-33 17 -66 17q-48 0 -81 -43.5t-33 -108.5v-238h-61v434h61v-91q14 42 47 72.5t78 30.5q39 0 62 -20zM52 -116v60h76v-49q0 -81 -76 -81v30q19 0 26.5 9t8.5 31h-35z" />
    <glyph glyph-name="Rcaron" unicode="&#x158;" horiz-adv-x="588" 
d="M548 0h-68q-18 26 -26 142q-7 124 -131 124h-196v-266h-62v630h238q116 0 175.5 -49t59.5 -133q0 -69 -41 -109t-104 -47q113 -21 123 -139q7 -79 12 -108t20 -45zM127 318h178q168 0 168 130q0 61 -41.5 95t-126.5 34h-178v-259zM334 678h-80l-79 122h49l70 -80l70 80
h49z" />
    <glyph glyph-name="rcaron" unicode="&#x159;" horiz-adv-x="313" 
d="M308 426l-7 -53q-33 17 -66 17q-48 0 -81 -43.5t-33 -108.5v-238h-61v434h61v-91q14 42 47 72.5t78 30.5q39 0 62 -20zM220 508h-80l-79 122h49l70 -80l70 80h49z" />
    <glyph glyph-name="Sacute" unicode="&#x15a;" horiz-adv-x="549" 
d="M22 226l57 5q4 -92 60 -143t144 -51q78 0 123.5 33t45.5 91q0 48 -30.5 75t-98.5 41l-128 25q-152 30 -152 161q0 79 59 129t157 50q115 0 179.5 -60t64.5 -166l-58 -5q-2 86 -50.5 134t-134.5 48q-74 0 -115 -34t-41 -94q0 -50 30.5 -73.5t97.5 -36.5l112 -22
q86 -17 127 -55.5t41 -111.5q0 -82 -63.5 -130t-165.5 -48q-116 0 -188.5 63t-72.5 175zM294 678h-42l54 122h85z" />
    <glyph glyph-name="sacute" unicode="&#x15b;" horiz-adv-x="425" 
d="M29 147l49 6q7 -56 44 -86.5t99 -30.5q52 0 83 19.5t31 56.5q0 34 -22.5 49.5t-72.5 24.5l-75 13q-123 21 -123 118q0 58 44 93.5t116 35.5q173 0 184 -156l-47 -4q-16 112 -137 112q-47 0 -75 -20t-28 -54q0 -31 19 -48t60 -24l80 -13q68 -11 101.5 -38.5t33.5 -82.5
q0 -62 -48.5 -96t-122.5 -34q-82 0 -135 40.5t-58 118.5zM230 508h-42l54 122h85z" />
    <glyph glyph-name="Scircumflex" unicode="&#x15c;" horiz-adv-x="549" 
d="M22 226l57 5q4 -92 60 -143t144 -51q78 0 123.5 33t45.5 91q0 48 -30.5 75t-98.5 41l-128 25q-152 30 -152 161q0 79 59 129t157 50q115 0 179.5 -60t64.5 -166l-58 -5q-2 86 -50.5 134t-134.5 48q-74 0 -115 -34t-41 -94q0 -50 30.5 -73.5t97.5 -36.5l112 -22
q86 -17 127 -55.5t41 -111.5q0 -82 -63.5 -130t-165.5 -48q-116 0 -188.5 63t-72.5 175zM233 800h80l79 -122h-49l-70 80l-70 -80h-49z" />
    <glyph glyph-name="scircumflex" unicode="&#x15d;" horiz-adv-x="425" 
d="M29 147l49 6q7 -56 44 -86.5t99 -30.5q52 0 83 19.5t31 56.5q0 34 -22.5 49.5t-72.5 24.5l-75 13q-123 21 -123 118q0 58 44 93.5t116 35.5q173 0 184 -156l-47 -4q-16 112 -137 112q-47 0 -75 -20t-28 -54q0 -31 19 -48t60 -24l80 -13q68 -11 101.5 -38.5t33.5 -82.5
q0 -62 -48.5 -96t-122.5 -34q-82 0 -135 40.5t-58 118.5zM177 630h80l79 -122h-49l-70 80l-70 -80h-49z" />
    <glyph glyph-name="Scedilla" unicode="&#x15e;" horiz-adv-x="549" 
d="M383 -102q0 -38 -31 -55.5t-79 -17.5q-63 0 -109 39l17 30q42 -34 92 -34q53 0 53 32q0 29 -31.5 33.5t-57.5 -10.5l-18 11l42 63q-107 6 -173 68t-66 169l57 5q4 -92 60 -143t144 -51q78 0 123.5 33t45.5 91q0 48 -30.5 75t-98.5 41l-128 25q-152 30 -152 161
q0 79 59 129t157 50q115 0 179.5 -60t64.5 -166l-58 -5q-2 86 -50.5 134t-134.5 48q-74 0 -115 -34t-41 -94q0 -50 30.5 -73.5t97.5 -36.5l112 -22q86 -17 127 -55.5t41 -111.5q0 -80 -60 -127.5t-156 -50.5l-27 -36q44 13 79 -1t35 -53z" />
    <glyph glyph-name="scedilla" unicode="&#x15f;" horiz-adv-x="425" 
d="M327 -102q0 -38 -31 -55.5t-79 -17.5q-63 0 -109 39l17 30q42 -34 92 -34q53 0 53 32q0 29 -31.5 33.5t-57.5 -10.5l-18 11l42 63q-76 4 -124 44t-52 114l49 6q7 -56 44 -86.5t99 -30.5q52 0 83 19.5t31 56.5q0 34 -22.5 49.5t-72.5 24.5l-75 13q-123 21 -123 118
q0 58 44 93.5t116 35.5q173 0 184 -156l-47 -4q-16 112 -137 112q-47 0 -75 -20t-28 -54q0 -31 19 -48t60 -24l80 -13q68 -11 101.5 -38.5t33.5 -82.5q0 -58 -42.5 -91t-110.5 -38l-27 -37q44 13 79 -1t35 -53z" />
    <glyph glyph-name="Scaron" unicode="&#x160;" horiz-adv-x="549" 
d="M22 226l57 5q4 -92 60 -143t144 -51q78 0 123.5 33t45.5 91q0 48 -30.5 75t-98.5 41l-128 25q-152 30 -152 161q0 79 59 129t157 50q115 0 179.5 -60t64.5 -166l-58 -5q-2 86 -50.5 134t-134.5 48q-74 0 -115 -34t-41 -94q0 -50 30.5 -73.5t97.5 -36.5l112 -22
q86 -17 127 -55.5t41 -111.5q0 -82 -63.5 -130t-165.5 -48q-116 0 -188.5 63t-72.5 175zM313 678h-80l-79 122h49l70 -80l70 80h49z" />
    <glyph glyph-name="scaron" unicode="&#x161;" horiz-adv-x="425" 
d="M29 147l49 6q7 -56 44 -86.5t99 -30.5q52 0 83 19.5t31 56.5q0 34 -22.5 49.5t-72.5 24.5l-75 13q-123 21 -123 118q0 58 44 93.5t116 35.5q173 0 184 -156l-47 -4q-16 112 -137 112q-47 0 -75 -20t-28 -54q0 -31 19 -48t60 -24l80 -13q68 -11 101.5 -38.5t33.5 -82.5
q0 -62 -48.5 -96t-122.5 -34q-82 0 -135 40.5t-58 118.5zM252 508h-80l-79 122h49l70 -80l70 80h49z" />
    <glyph glyph-name="Tcedilla" unicode="&#x162;" horiz-adv-x="572" 
d="M316 0h-63v577h-233v53h532v-53h-236v-577zM248 -116v60h76v-49q0 -81 -76 -81v30q19 0 26.5 9t8.5 31h-35z" />
    <glyph glyph-name="tcedilla" unicode="&#x163;" horiz-adv-x="291" 
d="M75 96v293h-67v30l26 5q28 6 39 20.5t18 48.5l13 62h31v-121h126v-45h-126v-294q0 -58 56 -58q35 0 85 30v-43q-47 -36 -106 -36q-95 0 -95 108zM136 -116v60h76v-49q0 -81 -76 -81v30q19 0 26.5 9t8.5 31h-35z" />
    <glyph glyph-name="Tcaron" unicode="&#x164;" horiz-adv-x="572" 
d="M316 0h-63v577h-233v53h532v-53h-236v-577zM326 678h-80l-79 122h49l70 -80l70 80h49z" />
    <glyph glyph-name="tcaron" unicode="&#x165;" horiz-adv-x="291" 
d="M75 96v293h-67v30l26 5q28 6 39 20.5t18 48.5l13 62h31v-121h126v-45h-126v-294q0 -58 56 -58q35 0 85 30v-43q-47 -36 -106 -36q-95 0 -95 108zM241 503h-32l16 127h75z" />
    <glyph glyph-name="Tbar" unicode="&#x166;" horiz-adv-x="572" 
d="M110 302v51h143v224h-233v53h532v-53h-236v-224h143v-51h-143v-302h-63v302h-143z" />
    <glyph glyph-name="tbar" unicode="&#x167;" horiz-adv-x="303" 
d="M15 220v44h67v125h-67v30l26 5q28 6 39 20.5t18 48.5l13 62h31v-121h126v-45h-126v-125h116v-44h-116v-125q0 -58 56 -58q35 0 85 30v-43q-47 -36 -106 -36q-95 0 -95 108v124h-67z" />
    <glyph glyph-name="Utilde" unicode="&#x168;" horiz-adv-x="604" 
d="M302 -12q-111 0 -179 60t-68 190v392h63v-401q0 -93 48 -140.5t136 -47.5q89 0 137.5 47.5t48.5 139.5v402h61v-392q0 -130 -68 -190t-179 -60zM201 677h-43q0 113 81 113q30 0 69.5 -32t57.5 -32q22 0 29 14.5t9 46.5h43q0 -113 -81 -113q-30 0 -69.5 32t-57.5 32
q-22 0 -29 -14.5t-9 -46.5z" />
    <glyph glyph-name="utilde" unicode="&#x169;" horiz-adv-x="476" 
d="M355 174v260h61v-434h-61v80q-16 -40 -56 -66t-88 -26q-80 0 -118 47t-38 130v269h61v-271q0 -59 28.5 -93t82.5 -34q53 0 90.5 38.5t37.5 99.5zM138 511h-43q0 113 81 113q30 0 69.5 -32t57.5 -32q22 0 29 14.5t9 46.5h43q0 -113 -81 -113q-30 0 -69.5 32t-57.5 32
q-22 0 -29 -14.5t-9 -46.5z" />
    <glyph glyph-name="Umacron" unicode="&#x16a;" horiz-adv-x="604" 
d="M302 -12q-111 0 -179 60t-68 190v392h63v-401q0 -93 48 -140.5t136 -47.5q89 0 137.5 47.5t48.5 139.5v402h61v-392q0 -130 -68 -190t-179 -60zM177 686v51h251v-51h-251z" />
    <glyph glyph-name="umacron" unicode="&#x16b;" horiz-adv-x="476" 
d="M355 174v260h61v-434h-61v80q-16 -40 -56 -66t-88 -26q-80 0 -118 47t-38 130v269h61v-271q0 -59 28.5 -93t82.5 -34q53 0 90.5 38.5t37.5 99.5zM114 522v51h251v-51h-251z" />
    <glyph glyph-name="Ubreve" unicode="&#x16c;" horiz-adv-x="604" 
d="M302 -12q-111 0 -179 60t-68 190v392h63v-401q0 -93 48 -140.5t136 -47.5q89 0 137.5 47.5t48.5 139.5v402h61v-392q0 -130 -68 -190t-179 -60zM302 675q-109 0 -109 125h49q0 -77 60 -77t60 77h49q0 -125 -109 -125z" />
    <glyph glyph-name="ubreve" unicode="&#x16d;" horiz-adv-x="476" 
d="M355 174v260h61v-434h-61v80q-16 -40 -56 -66t-88 -26q-80 0 -118 47t-38 130v269h61v-271q0 -59 28.5 -93t82.5 -34q53 0 90.5 38.5t37.5 99.5zM239 505q-109 0 -109 125h49q0 -77 60 -77t60 77h49q0 -125 -109 -125z" />
    <glyph glyph-name="Uring" unicode="&#x16e;" horiz-adv-x="604" 
d="M302 -12q-111 0 -179 60t-68 190v392h63v-401q0 -93 48 -140.5t136 -47.5q89 0 137.5 47.5t48.5 139.5v402h61v-392q0 -130 -68 -190t-179 -60zM256 740q0 -21 12 -33.5t34 -12.5t34 12.5t12 33.5t-12 33.5t-34 12.5t-34 -12.5t-12 -33.5zM217 740q0 35 23.5 58.5
t61.5 23.5t61.5 -23.5t23.5 -58.5t-23.5 -58.5t-61.5 -23.5t-61.5 23.5t-23.5 58.5z" />
    <glyph glyph-name="uring" unicode="&#x16f;" horiz-adv-x="476" 
d="M355 174v260h61v-434h-61v80q-16 -40 -56 -66t-88 -26q-80 0 -118 47t-38 130v269h61v-271q0 -59 28.5 -93t82.5 -34q53 0 90.5 38.5t37.5 99.5zM193 570q0 -21 12 -33.5t34 -12.5t34 12.5t12 33.5t-12 33.5t-34 12.5t-34 -12.5t-12 -33.5zM154 570q0 35 23.5 58.5
t61.5 23.5t61.5 -23.5t23.5 -58.5t-23.5 -58.5t-61.5 -23.5t-61.5 23.5t-23.5 58.5z" />
    <glyph glyph-name="Uhungarumlaut" unicode="&#x170;" horiz-adv-x="604" 
d="M302 -12q-111 0 -179 60t-68 190v392h63v-401q0 -93 48 -140.5t136 -47.5q89 0 137.5 47.5t48.5 139.5v402h61v-392q0 -130 -68 -190t-179 -60zM266 678h-37l54 122h80zM386 678h-37l54 122h80z" />
    <glyph glyph-name="uhungarumlaut" unicode="&#x171;" horiz-adv-x="476" 
d="M355 174v260h61v-434h-61v80q-16 -40 -56 -66t-88 -26q-80 0 -118 47t-38 130v269h61v-271q0 -59 28.5 -93t82.5 -34q53 0 90.5 38.5t37.5 99.5zM197 508h-37l54 122h80zM317 508h-37l54 122h80z" />
    <glyph glyph-name="Uogonek" unicode="&#x172;" horiz-adv-x="604" 
d="M302 -12q-111 0 -179 60t-68 190v392h63v-401q0 -93 48 -140.5t136 -47.5q89 0 137.5 47.5t48.5 139.5v402h61v-392q0 -175 -128 -229q-46 -39 -64.5 -63t-18.5 -47q0 -31 39 -31q21 0 55 17v-38q-34 -22 -73 -22q-32 0 -51.5 17t-19.5 49q0 48 70 101q-24 -4 -56 -4z
" />
    <glyph glyph-name="uogonek" unicode="&#x173;" horiz-adv-x="476" 
d="M355 174v260h61v-434q-51 -33 -71 -55.5t-20 -45.5q0 -31 39 -31q21 0 55 17v-38q-34 -22 -73 -22q-32 0 -51.5 17t-19.5 49q0 30 20.5 55t59.5 54v80q-16 -40 -56 -66t-88 -26q-80 0 -118 47t-38 130v269h61v-271q0 -59 28.5 -93t82.5 -34q53 0 90.5 38.5t37.5 99.5z
" />
    <glyph glyph-name="Wcircumflex" unicode="&#x174;" horiz-adv-x="792" 
d="M427 630l150 -560h4l137 560h59l-160 -630h-79l-139 532h-4l-141 -532h-79l-160 630h61l140 -557h4l147 557h60zM356 800h80l79 -122h-49l-70 80l-70 -80h-49z" />
    <glyph glyph-name="wcircumflex" unicode="&#x175;" horiz-adv-x="618" 
d="M337 434l102 -352h4l107 352h58l-138 -434h-58l-101 346h-4l-100 -346h-58l-139 434h61l109 -352h4l100 352h53zM269 630h80l79 -122h-49l-70 80l-70 -80h-49z" />
    <glyph glyph-name="Ycircumflex" unicode="&#x176;" horiz-adv-x="584" 
d="M296 307l206 323h67l-247 -381v-249h-60v249l-247 381h69zM252 800h80l79 -122h-49l-70 80l-70 -80h-49z" />
    <glyph glyph-name="ycircumflex" unicode="&#x177;" horiz-adv-x="441" 
d="M181 -170h-60l73 173l-184 431h64l149 -357h4l144 357h60zM180 630h80l79 -122h-49l-70 80l-70 -80h-49z" />
    <glyph glyph-name="Ydieresis" unicode="&#x178;" horiz-adv-x="584" 
d="M296 307l206 323h67l-247 -381v-249h-60v249l-247 381h69zM198 684v81h65v-81h-65zM322 684v81h65v-81h-65z" />
    <glyph glyph-name="Zacute" unicode="&#x179;" horiz-adv-x="551" 
d="M111 53h410v-53h-491v42l400 535h-395v53h475v-45zM308 678h-42l54 122h85z" />
    <glyph glyph-name="zacute" unicode="&#x17a;" horiz-adv-x="421" 
d="M305 385h-265v49h345v-42l-279 -343h286v-49h-361v42zM240 508h-42l54 122h85z" />
    <glyph glyph-name="Zdotaccent" unicode="&#x17b;" horiz-adv-x="551" 
d="M111 53h410v-53h-491v42l400 535h-395v53h475v-45zM255 684v81h65v-81h-65z" />
    <glyph glyph-name="zdotaccent" unicode="&#x17c;" horiz-adv-x="421" 
d="M305 385h-265v49h345v-42l-279 -343h286v-49h-361v42zM185 549v81h65v-81h-65z" />
    <glyph glyph-name="Zcaron" unicode="&#x17d;" horiz-adv-x="551" 
d="M111 53h410v-53h-491v42l400 535h-395v53h475v-45zM327 678h-80l-79 122h49l70 -80l70 80h49z" />
    <glyph glyph-name="zcaron" unicode="&#x17e;" horiz-adv-x="421" 
d="M305 385h-265v49h345v-42l-279 -343h286v-49h-361v42zM257 508h-80l-79 122h49l70 -80l70 80h49z" />
    <glyph glyph-name="florin" unicode="&#x192;" horiz-adv-x="401" 
d="M266 501l-26 -125h105v-46h-115l-60 -290q-13 -64 -43.5 -99.5t-89.5 -35.5q-11 0 -37 4v48q15 -3 27 -3q36 0 56 23t29 69l59 284h-79v46h88l28 131q12 59 46.5 95.5t89.5 36.5q21 0 45 -6v-46q-22 5 -36 5q-68 0 -87 -91z" />
    <glyph glyph-name="Aringacute" unicode="&#x1fa;" horiz-adv-x="623" 
d="M274 630h68l266 -630h-67l-85 203h-298l-81 -203h-62zM303 562l-123 -306h254l-127 306h-4zM225 732q0 34 23.5 56t61.5 22t62 -22t24 -56q0 -33 -24 -55t-62 -22t-61.5 22t-23.5 55zM264 732q0 -19 12 -30.5t34 -11.5q47 0 47 42q0 43 -47 43q-46 0 -46 -43zM332 831
h-42l41 93h85z" />
    <glyph glyph-name="aringacute" unicode="&#x1fb;" horiz-adv-x="478" 
d="M256 654h-42l41 93h85zM188 548q0 -19 12 -30.5t34 -11.5q47 0 47 42q0 43 -47 43q-46 0 -46 -43zM149 548q0 34 23.5 56t61.5 22t62 -22t24 -56q0 -33 -24 -55t-62 -22t-61.5 22t-23.5 55zM336 197v27l-106 -23q-68 -15 -98 -33t-30 -58q0 -33 21.5 -54t62.5 -21
q65 0 107.5 45t42.5 117zM394 282v-209q0 -34 36 -34q20 0 39 11v-33q-23 -26 -57 -26q-32 0 -53.5 25.5t-22.5 66.5q-18 -40 -62.5 -67.5t-98.5 -27.5q-61 0 -98 32t-37 88q0 58 45.5 88.5t134.5 48.5l116 24v22q0 50 -28 78.5t-79 28.5q-98 0 -124 -97l-52 10
q13 60 59.5 97.5t115.5 37.5q81 0 123.5 -42t42.5 -122z" />
    <glyph glyph-name="AEacute" unicode="&#x1fc;" horiz-adv-x="974" 
d="M463 630h462v-53h-366v-224h293v-53h-293v-247h375v-53h-436v203h-271l-144 -203h-68zM494 579l-230 -323h234v323h-4zM689 678h-42l54 122h85z" />
    <glyph glyph-name="aeacute" unicode="&#x1fd;" horiz-adv-x="774" 
d="M228 446q114 0 147 -84q63 84 164 84q98 0 151 -61.5t53 -154.5v-28h-357q3 -75 48 -119.5t109 -44.5q120 0 147 117l52 -7q-16 -75 -68 -117.5t-131 -42.5q-125 0 -183 106q-20 -43 -67.5 -74.5t-106.5 -31.5q-69 0 -107.5 32t-38.5 88q0 137 226 137h72v38q0 55 -29 85
t-80 30q-98 0 -124 -97l-52 10q13 60 59.5 97.5t115.5 37.5zM186 35q63 0 107.5 39.5t44.5 109.5v18h-71q-93 0 -129 -23t-36 -69q0 -33 21.5 -54t62.5 -21zM539 398q-59 0 -101 -42.5t-50 -110.5h290q-2 65 -38 109t-101 44zM414 508h-42l54 122h85z" />
    <glyph glyph-name="Oslashacute" unicode="&#x1fe;" horiz-adv-x="688" 
d="M653 315q0 -146 -85.5 -236.5t-223.5 -90.5q-107 0 -185 56l-61 -76l-39 31l63 78q-87 90 -87 238q0 146 85.5 236.5t223.5 90.5q109 0 188 -59l55 68l39 -31l-57 -71q84 -90 84 -234zM101 315q0 -119 59 -192l336 415q-62 51 -152 51q-111 0 -177 -74.5t-66 -199.5z
M587 315q0 114 -56 187l-336 -414q63 -47 149 -47q111 0 177 74.5t66 199.5zM365 678h-42l54 122h85z" />
    <glyph glyph-name="oslashacute" unicode="&#x1ff;" horiz-adv-x="497" 
d="M466 217q0 -100 -62 -164.5t-156 -64.5q-73 0 -130 41l-52 -61l-34 28l54 63q-55 63 -55 158q0 100 62 164.5t155 64.5q75 0 131 -42l53 62l34 -28l-55 -65q55 -63 55 -156zM95 217q0 -66 28 -114l222 261q-39 34 -97 34q-71 0 -112 -50t-41 -131zM402 217q0 66 -28 113
l-222 -261q38 -33 96 -33q72 0 113 50t41 131zM271 508h-42l54 122h85z" />
    <glyph glyph-name="Scommaaccent" unicode="&#x218;" horiz-adv-x="549" 
d="M22 226l57 5q4 -92 60 -143t144 -51q78 0 123.5 33t45.5 91q0 48 -30.5 75t-98.5 41l-128 25q-152 30 -152 161q0 79 59 129t157 50q115 0 179.5 -60t64.5 -166l-58 -5q-2 86 -50.5 134t-134.5 48q-74 0 -115 -34t-41 -94q0 -50 30.5 -73.5t97.5 -36.5l112 -22
q86 -17 127 -55.5t41 -111.5q0 -82 -63.5 -130t-165.5 -48q-116 0 -188.5 63t-72.5 175zM235 -116v60h76v-49q0 -81 -76 -81v30q19 0 26.5 9t8.5 31h-35z" />
    <glyph glyph-name="scommaaccent" unicode="&#x219;" horiz-adv-x="425" 
d="M29 147l49 6q7 -56 44 -86.5t99 -30.5q52 0 83 19.5t31 56.5q0 34 -22.5 49.5t-72.5 24.5l-75 13q-123 21 -123 118q0 58 44 93.5t116 35.5q173 0 184 -156l-47 -4q-16 112 -137 112q-47 0 -75 -20t-28 -54q0 -31 19 -48t60 -24l80 -13q68 -11 101.5 -38.5t33.5 -82.5
q0 -62 -48.5 -96t-122.5 -34q-82 0 -135 40.5t-58 118.5zM185 -116v60h76v-49q0 -81 -76 -81v30q19 0 26.5 9t8.5 31h-35z" />
    <glyph glyph-name="uni0237" unicode="&#x237;" horiz-adv-x="181" 
d="M121 434v-507q0 -109 -102 -109q-52 0 -89 32l19 40q35 -23 69 -23q42 0 42 50v517h61z" />
    <glyph glyph-name="circumflex" unicode="&#x2c6;" 
d="M210 630h80l79 -122h-49l-70 80l-70 -80h-49z" />
    <glyph glyph-name="caron" unicode="&#x2c7;" 
d="M290 508h-80l-79 122h49l70 -80l70 80h49z" />
    <glyph glyph-name="breve" unicode="&#x2d8;" 
d="M250 505q-109 0 -109 125h49q0 -77 60 -77t60 77h49q0 -125 -109 -125z" />
    <glyph glyph-name="dotaccent" unicode="&#x2d9;" 
d="M217 549v81h65v-81h-65z" />
    <glyph glyph-name="ring" unicode="&#x2da;" 
d="M204 570q0 -21 12 -33.5t34 -12.5t34 12.5t12 33.5t-12 33.5t-34 12.5t-34 -12.5t-12 -33.5zM165 570q0 35 23.5 58.5t61.5 23.5t61.5 -23.5t23.5 -58.5t-23.5 -58.5t-61.5 -23.5t-61.5 23.5t-23.5 58.5z" />
    <glyph glyph-name="ogonek" unicode="&#x2db;" 
d="M274 12h40q-48 -42 -67 -66t-19 -47q0 -31 39 -31q21 0 55 17v-38q-34 -22 -73 -22q-32 0 -51.5 17t-19.5 49q0 23 16.5 46.5t31.5 36.5t48 38z" />
    <glyph glyph-name="tilde" unicode="&#x2dc;" 
d="M148 511h-43q0 113 81 113q30 0 69.5 -32t57.5 -32q22 0 29 14.5t9 46.5h43q0 -113 -81 -113q-30 0 -69.5 32t-57.5 32q-22 0 -29 -14.5t-9 -46.5z" />
    <glyph glyph-name="hungarumlaut" unicode="&#x2dd;" 
d="M160 508h-37l54 122h80zM280 508h-37l54 122h80z" />
    <glyph glyph-name="Wgrave" unicode="&#x1e80;" horiz-adv-x="792" 
d="M427 630l150 -560h4l137 560h59l-160 -630h-79l-139 532h-4l-141 -532h-79l-160 630h61l140 -557h4l147 557h60zM428 678h-42l-97 122h85z" />
    <glyph glyph-name="wgrave" unicode="&#x1e81;" horiz-adv-x="618" 
d="M337 434l102 -352h4l107 352h58l-138 -434h-58l-101 346h-4l-100 -346h-58l-139 434h61l109 -352h4l100 352h53zM339 508h-42l-97 122h85z" />
    <glyph glyph-name="Wacute" unicode="&#x1e82;" horiz-adv-x="792" 
d="M427 630l150 -560h4l137 560h59l-160 -630h-79l-139 532h-4l-141 -532h-79l-160 630h61l140 -557h4l147 557h60zM417 678h-42l54 122h85z" />
    <glyph glyph-name="wacute" unicode="&#x1e83;" horiz-adv-x="618" 
d="M337 434l102 -352h4l107 352h58l-138 -434h-58l-101 346h-4l-100 -346h-58l-139 434h61l109 -352h4l100 352h53zM332 508h-42l54 122h85z" />
    <glyph glyph-name="Wdieresis" unicode="&#x1e84;" horiz-adv-x="792" 
d="M427 630l150 -560h4l137 560h59l-160 -630h-79l-139 532h-4l-141 -532h-79l-160 630h61l140 -557h4l147 557h60zM302 684v81h65v-81h-65zM426 684v81h65v-81h-65z" />
    <glyph glyph-name="wdieresis" unicode="&#x1e85;" horiz-adv-x="618" 
d="M337 434l102 -352h4l107 352h58l-138 -434h-58l-101 346h-4l-100 -346h-58l-139 434h61l109 -352h4l100 352h53zM215 539v81h65v-81h-65zM339 539v81h65v-81h-65z" />
    <glyph glyph-name="Ygrave" unicode="&#x1ef2;" horiz-adv-x="584" 
d="M296 307l206 323h67l-247 -381v-249h-60v249l-247 381h69zM324 678h-42l-97 122h85z" />
    <glyph glyph-name="ygrave" unicode="&#x1ef3;" horiz-adv-x="441" 
d="M181 -170h-60l73 173l-184 431h64l149 -357h4l144 357h60zM250 508h-42l-97 122h85z" />
    <glyph glyph-name="endash" unicode="&#x2013;" 
d="M60 231v48h380v-48h-380z" />
    <glyph glyph-name="emdash" unicode="&#x2014;" horiz-adv-x="1000" 
d="M60 231v48h880v-48h-880z" />
    <glyph glyph-name="quoteleft" unicode="&#x2018;" horiz-adv-x="160" 
d="M120 540v-80h-80v81q0 53 15 77t65 24v-41q-25 -2 -32 -14t-7 -47h39z" />
    <glyph glyph-name="quoteright" unicode="&#x2019;" horiz-adv-x="160" 
d="M40 550v80h80v-81q0 -53 -15 -77t-65 -24v41q25 2 32 14t7 47h-39z" />
    <glyph glyph-name="quotesinglbase" unicode="&#x201a;" horiz-adv-x="160" 
d="M40 0v80h80v-81q0 -53 -15 -77t-65 -24v41q25 2 32 14t7 47h-39z" />
    <glyph glyph-name="quotedblleft" unicode="&#x201c;" horiz-adv-x="290" 
d="M120 540v-80h-80v81q0 53 15 77t65 24v-41q-25 -2 -32 -14t-7 -47h39zM250 540v-80h-80v81q0 53 15 77t65 24v-41q-25 -2 -32 -14t-7 -47h39z" />
    <glyph glyph-name="quotedblright" unicode="&#x201d;" horiz-adv-x="290" 
d="M170 550v80h80v-81q0 -53 -15 -77t-65 -24v41q25 2 32 14t7 47h-39zM40 550v80h80v-81q0 -53 -15 -77t-65 -24v41q25 2 32 14t7 47h-39z" />
    <glyph glyph-name="quotedblbase" unicode="&#x201e;" horiz-adv-x="290" 
d="M170 0v80h80v-81q0 -53 -15 -77t-65 -24v41q25 2 32 14t7 47h-39zM40 0v80h80v-81q0 -53 -15 -77t-65 -24v41q25 2 32 14t7 47h-39z" />
    <glyph glyph-name="dagger" unicode="&#x2020;" horiz-adv-x="305" 
d="M20 493v47h108v102h49v-102h108v-47h-108v-241h-49v241h-108z" />
    <glyph glyph-name="daggerdbl" unicode="&#x2021;" horiz-adv-x="315" 
d="M25 354v47h108v92h-108v47h108v102h49v-102h108v-47h-108v-92h108v-47h-108v-102h-49v102h-108z" />
    <glyph glyph-name="bullet" unicode="&#x2022;" horiz-adv-x="315" 
d="M265 255q0 -46 -31.5 -76.5t-76.5 -30.5t-76 30.5t-31 76.5t31 77t76 31t76.5 -31t31.5 -77z" />
    <glyph glyph-name="ellipsis" unicode="&#x2026;" horiz-adv-x="480" 
d="M40 0v80h80v-80h-80zM200 0v80h80v-80h-80zM360 0v80h80v-80h-80z" />
    <glyph glyph-name="perthousand" unicode="&#x2030;" horiz-adv-x="1042" 
d="M91 479q0 -118 82 -118t82 118t-82 118t-82 -118zM30 479q0 75 40.5 119t102.5 44t102.5 -44t40.5 -119t-40.5 -119t-102.5 -44t-102.5 44t-40.5 119zM624 151q0 118 -82 118t-82 -118t82 -118t82 118zM685 151q0 -75 -40.5 -119t-102.5 -44t-102.5 44t-40.5 119
t40.5 119t102.5 44t102.5 -44t40.5 -119zM951 151q0 118 -82 118t-82 -118t82 -118t82 118zM1012 151q0 -75 -40.5 -119t-102.5 -44t-102.5 44t-40.5 119t40.5 119t102.5 44t102.5 -44t40.5 -119zM545 630l-320 -630h-55l320 630h55z" />
    <glyph glyph-name="guilsinglleft" unicode="&#x2039;" horiz-adv-x="239" 
d="M50 194v44l139 130v-66l-93 -86l93 -86v-66z" />
    <glyph glyph-name="guilsinglright" unicode="&#x203a;" horiz-adv-x="239" 
d="M189 238v-44l-139 -130v66l93 86l-93 86v66z" />
    <glyph glyph-name="fraction" unicode="&#x2044;" horiz-adv-x="487" 
d="M481 630l-414 -630h-57l414 630h57z" />
    <glyph glyph-name="Euro" unicode="&#x20ac;" horiz-adv-x="605" 
d="M15 228v47h63q-1 13 -1 40q0 25 1 37h-63v47h68q19 112 84 177.5t162 65.5q107 0 170 -72t71 -189l-61 -3q-6 95 -51.5 153t-128.5 58q-75 0 -121 -50.5t-61 -139.5h208l-10 -47h-203q-1 -12 -1 -37q0 -27 1 -40h192l-10 -47h-176q15 -89 60.5 -138t120.5 -49
q83 0 127.5 56t52.5 155l61 -3q-9 -119 -71.5 -190t-169.5 -71q-96 0 -161 64.5t-84 175.5h-69z" />
    <glyph glyph-name="uni2117" unicode="&#x2117;" horiz-adv-x="724" 
d="M35 315q0 141 95 234t232 93t232 -93t95 -234t-95 -234t-232 -93t-232 93t-95 234zM81 315q0 -122 81.5 -202t199.5 -80t199.5 80t81.5 202t-81.5 202t-199.5 80t-199.5 -80t-81.5 -202zM296 310h82q95 0 95 72t-95 72h-82v-144zM296 264v-135h-55v371h146
q68 0 104.5 -33t36.5 -85t-36.5 -85t-104.5 -33h-91z" />
    <glyph glyph-name="trademark" unicode="&#x2122;" horiz-adv-x="617" 
d="M159 370h-47v220h-92v40h233v-40h-94v-220zM443 370h-40l-70 218h-2v-218h-44v260h75l62 -201h2l62 201h72v-260h-46v218h-2z" />
    <glyph glyph-name="uni2153" unicode="&#x2153;" horiz-adv-x="712" 
d="M30 538v36q39 0 59 13.5t31 45.5h38v-387h-56v292h-72zM625 106q0 31 -23 48.5t-59 17.5q-18 0 -36 -2v45q8 -1 36 -1q75 0 75 64q0 32 -20 50.5t-58 18.5q-39 0 -62 -25t-23 -70l-54 2q0 61 38 99.5t102 38.5q63 0 98 -29.5t35 -79.5q0 -35 -22 -59.5t-52 -29.5
q36 -5 59 -30t23 -62q0 -49 -38 -79t-101 -30q-69 0 -109 36.5t-40 100.5l55 -2q1 -44 26 -67t68 -23q37 0 59.5 18t22.5 50zM545 630l-414 -630h-57l414 630h57z" />
    <glyph glyph-name="uni2154" unicode="&#x2154;" horiz-adv-x="829" 
d="M742 106q0 31 -23 48.5t-59 17.5q-18 0 -36 -2v45q8 -1 36 -1q75 0 75 64q0 32 -20 50.5t-58 18.5q-39 0 -62 -25t-23 -70l-54 2q0 61 38 99.5t102 38.5q63 0 98 -29.5t35 -79.5q0 -35 -22 -59.5t-52 -29.5q36 -5 59 -30t23 -62q0 -49 -38 -79t-101 -30q-69 0 -109 36.5
t-40 100.5l55 -2q1 -44 26 -67t68 -23q38 0 60 18t22 50zM116 292h197v-48h-283v33l108 93q38 32 56 49.5t33 43.5t15 52q0 34 -19 54t-55 20q-38 0 -59 -23t-21 -64q0 -15 5 -35l-56 3q-4 24 -4 36q0 59 37 94.5t99 35.5q64 0 97.5 -33t33.5 -85q0 -33 -18.5 -65.5t-39 -53
t-55.5 -49.5zM662 630l-414 -630h-57l414 630h57z" />
    <glyph glyph-name="uni215B" unicode="&#x215b;" horiz-adv-x="724" 
d="M30 538v36q39 0 59 13.5t31 45.5h38v-387h-56v292h-72zM548 350q-36 0 -56.5 -17.5t-20.5 -51.5q0 -32 21 -49.5t56 -17.5q36 0 57 17.5t21 49.5q0 34 -21 51.5t-57 17.5zM548 173q-88 0 -88 -68q0 -33 23 -51.5t65 -18.5q43 0 66 18.5t23 51.5q0 68 -89 68zM548 -7
q-68 0 -107 29.5t-39 79.5q0 36 23 61t56 31q-65 24 -65 91q0 49 37 78t95 29q59 0 96 -29t37 -78q0 -67 -65 -91q33 -6 55.5 -31t22.5 -61q0 -51 -38.5 -80t-107.5 -29zM545 630l-414 -630h-57l414 630h57z" />
    <glyph glyph-name="uni215C" unicode="&#x215c;" horiz-adv-x="837" 
d="M661 350q-35 0 -56 -17.5t-21 -51.5q0 -32 21 -49.5t56 -17.5q36 0 57 17.5t21 49.5q0 34 -21 51.5t-57 17.5zM661 173q-88 0 -88 -68q0 -33 23 -51.5t65 -18.5q43 0 66 18.5t23 51.5q0 68 -89 68zM661 -7q-68 0 -107 29.5t-39 79.5q0 36 23 61t56 31q-65 24 -65 91
q0 49 37 78t95 29q59 0 96 -29t37 -78q0 -67 -65 -91q33 -6 55.5 -31t22.5 -61q0 -51 -38.5 -80t-107.5 -29zM261 351q0 31 -23 48.5t-59 17.5q-18 0 -36 -2v45q8 -1 36 -1q75 0 75 64q0 32 -20 50.5t-58 18.5q-39 0 -62 -25t-23 -70l-54 2q0 61 38 99.5t102 38.5
q63 0 98 -29.5t35 -79.5q0 -35 -22 -59.5t-52 -29.5q36 -5 59 -30t23 -62q0 -49 -38 -79t-101 -30q-69 0 -109 36.5t-40 100.5l55 -2q1 -44 26 -67t68 -23q37 0 59.5 18t22.5 50zM658 630l-414 -630h-57l414 630h57z" />
    <glyph glyph-name="uni215D" unicode="&#x215d;" horiz-adv-x="819" 
d="M643 350q-35 0 -56 -17.5t-21 -51.5q0 -32 21 -49.5t56 -17.5q36 0 57 17.5t21 49.5q0 34 -21 51.5t-57 17.5zM643 173q-88 0 -88 -68q0 -33 23 -51.5t65 -18.5q43 0 66 18.5t23 51.5q0 68 -89 68zM643 -7q-68 0 -107 29.5t-39 79.5q0 36 23 61t56 31q-65 24 -65 91
q0 49 37 78t95 29q59 0 96 -29t37 -78q0 -67 -65 -91q33 -6 55.5 -31t22.5 -61q0 -51 -38.5 -80t-107.5 -29zM287 630v-50h-183q0 -50 -13 -115q31 38 90 38q63 0 97.5 -37t34.5 -93q0 -60 -38.5 -97t-101.5 -37q-69 0 -107 39t-35 104l54 -4q0 -44 23 -69.5t66 -25.5
q40 0 63 24.5t23 65.5q0 38 -23.5 62t-62.5 24q-56 0 -82 -47l-55 3q22 116 25 215h225zM640 630l-414 -630h-57l414 630h57z" />
    <glyph glyph-name="uni215E" unicode="&#x215e;" horiz-adv-x="735" 
d="M559 350q-35 0 -56 -17.5t-21 -51.5q0 -32 21 -49.5t56 -17.5q36 0 57 17.5t21 49.5q0 34 -21 51.5t-57 17.5zM559 173q-88 0 -88 -68q0 -33 23 -51.5t65 -18.5q43 0 66 18.5t23 51.5q0 68 -89 68zM559 -7q-68 0 -107 29.5t-39 79.5q0 36 23 61t56 31q-65 24 -65 91
q0 49 37 78t95 29q59 0 96 -29t37 -78q0 -67 -65 -91q33 -6 55.5 -31t22.5 -61q0 -51 -38.5 -80t-107.5 -29zM230 580h-210v50h273v-35q-125 -131 -127 -349h-61q3 206 125 334zM556 630l-414 -630h-57l414 630h57z" />
    <glyph glyph-name="minus" unicode="&#x2212;" horiz-adv-x="620" 
d="M57 286v52h506v-52h-506z" />
    <glyph glyph-name="approxequal" unicode="&#x2248;" horiz-adv-x="631" 
d="M62 329v54q72 46 137 46q43 0 115 -22t116 -22q69 0 139 45v-54q-69 -46 -139 -46q-44 0 -116 22t-115 22q-67 0 -137 -45zM62 193v55q70 45 137 45q43 0 115 -22t116 -22q69 0 139 45v-54q-70 -45 -139 -45q-44 0 -116 22t-115 22q-65 0 -137 -46z" />
    <glyph glyph-name="notequal" unicode="&#x2260;" horiz-adv-x="631" 
d="M62 356v53h301l101 127h61l-102 -127h146v-53h-188l-73 -92h261v-53h-303l-99 -124h-61l99 124h-143v53h185l73 92h-258z" />
    <glyph glyph-name="lessequal" unicode="&#x2264;" horiz-adv-x="465" 
d="M39 46v52h387v-52h-387zM39 347v54l387 190v-56l-329 -161l329 -162v-56z" />
    <glyph glyph-name="greaterequal" unicode="&#x2265;" horiz-adv-x="465" 
d="M426 98v-52h-387v52h387zM426 401v-54l-387 -191v56l329 162l-329 161v56z" />
    <glyph glyph-name="i.dot" horiz-adv-x="181" 
d="M60 434h61v-434h-61v434zM58 549v81h65v-81h-65z" />
    <glyph glyph-name="space_uni0326" 
d="M212 -116v60h76v-49q0 -81 -76 -81v30q19 0 26.5 9t8.5 31h-35z" />
    <glyph glyph-name="space_uni0326.alt" 
d="M288 589v-60h-76v49q0 81 76 81v-30q-19 0 -26.5 -9t-8.5 -31h35z" />
    <glyph glyph-name="space_dotbelowcomb" 
d="M217 -170v81h65v-81h-65z" />
    <glyph glyph-name="caron.Slovak" 
d="M236 503h-32l16 127h75z" />
    <glyph glyph-name="cedilla.alt" 
d="M359 -102q0 -38 -31 -55.5t-79 -17.5q-63 0 -109 39l17 30q42 -34 92 -34q53 0 53 32q0 29 -31.5 33.5t-57.5 -10.5l-18 11l58 85h36l-44 -59q44 13 79 -1t35 -53z" />
    <glyph glyph-name="grave.cap" 
d="M319 678h-42l-97 122h85z" />
    <glyph glyph-name="acute.cap" 
d="M222 678h-42l54 122h85z" />
    <glyph glyph-name="circumflex.cap" 
d="M210 800h80l79 -122h-49l-70 80l-70 -80h-49z" />
    <glyph glyph-name="caron.cap" 
d="M290 678h-80l-79 122h49l70 -80l70 80h49z" />
    <glyph glyph-name="tilde.cap" 
d="M148 677h-43q0 113 81 113q30 0 69.5 -32t57.5 -32q22 0 29 14.5t9 46.5h43q0 -113 -81 -113q-30 0 -69.5 32t-57.5 32q-22 0 -29 -14.5t-9 -46.5z" />
    <glyph glyph-name="macron.cap" 
d="M124 686v51h251v-51h-251z" />
    <glyph glyph-name="breve.cap" 
d="M250 675q-109 0 -109 125h49q0 -77 60 -77t60 77h49q0 -125 -109 -125z" />
    <glyph glyph-name="dotaccent.cap" 
d="M217 684v81h65v-81h-65z" />
    <glyph glyph-name="dieresis.cap" 
d="M155 684v81h65v-81h-65zM279 684v81h65v-81h-65z" />
    <glyph glyph-name="ring.cap" 
d="M204 740q0 -21 12 -33.5t34 -12.5t34 12.5t12 33.5t-12 33.5t-34 12.5t-34 -12.5t-12 -33.5zM165 740q0 35 23.5 58.5t61.5 23.5t61.5 -23.5t23.5 -58.5t-23.5 -58.5t-61.5 -23.5t-61.5 23.5t-23.5 58.5z" />
    <glyph glyph-name="hungarumlaut.cap" 
d="M160 678h-37l54 122h80zM280 678h-37l54 122h80z" />
    <glyph glyph-name="exclamdown.cap" horiz-adv-x="180" 
d="M50 550v80h80v-80h-80zM123 0h-66v180l22 298h22l22 -298v-180z" />
    <glyph glyph-name="questiondown.cap" horiz-adv-x="478" 
d="M221 474h57q0 -45 -17 -76t-59 -65q-3 -3 -16 -13.5t-17.5 -14t-15.5 -13.5t-15.5 -15.5t-13 -16t-12 -19t-8.5 -19.5t-6.5 -23.5t-1.5 -25.5q0 -60 35.5 -97t102.5 -37q71 0 111 42.5t40 119.5q0 30 -7 59l64 -4q6 -30 6 -59q0 -96 -58 -152.5t-156 -56.5
q-103 0 -153.5 52t-50.5 133q0 60 34.5 104t104.5 100q30 24 41 44.5t11 52.5zM293 630v-80h-80v80h80z" />
    <glyph glyph-name="guilsinglleft.cap" horiz-adv-x="239" 
d="M50 284v44l139 130v-66l-93 -86l93 -86v-66z" />
    <glyph glyph-name="guilsinglright.cap" horiz-adv-x="239" 
d="M189 328v-44l-139 -130v66l93 86l-93 86v66z" />
    <glyph glyph-name="guillemotleft.cap" horiz-adv-x="384" 
d="M50 284v44l139 130v-66l-93 -86l93 -86v-66zM195 284v44l139 130v-66l-93 -86l93 -86v-66z" />
    <glyph glyph-name="guillemotright.cap" horiz-adv-x="384" 
d="M189 328v-44l-139 -130v66l93 86l-93 86v66zM334 328v-44l-139 -130v66l93 86l-93 86v66z" />
    <glyph glyph-name="slash.cap" horiz-adv-x="309" 
d="M0 0l250 630h59l-250 -630h-59z" />
    <glyph glyph-name="backslash.cap" horiz-adv-x="309" 
d="M59 630l250 -630h-59l-250 630h59z" />
    <glyph glyph-name="bar.cap" horiz-adv-x="186" 
d="M65 0v630h56v-630h-56z" />
    <glyph glyph-name="periodcentered.cap" horiz-adv-x="160" 
d="M40 275v80h80v-80h-80z" />
    <glyph glyph-name="bullet.cap" horiz-adv-x="315" 
d="M265 315q0 -46 -31.5 -76.5t-76.5 -30.5t-76 30.5t-31 76.5t31 77t76 31t76.5 -31t31.5 -77z" />
    <glyph glyph-name="hyphen.cap" horiz-adv-x="340" 
d="M60 287v55h220v-55h-220z" />
    <glyph glyph-name="endash.cap" 
d="M60 291v48h380v-48h-380z" />
    <glyph glyph-name="emdash.cap" horiz-adv-x="1000" 
d="M60 291v48h880v-48h-880z" />
    <glyph glyph-name="parenleft.cap" horiz-adv-x="273" 
d="M40 303q0 103 36 201.5t102 170.5h65q-135 -154 -135 -372t135 -372h-65q-66 72 -102 170.5t-36 201.5z" />
    <glyph glyph-name="parenright.cap" horiz-adv-x="273" 
d="M233 303q0 -103 -36 -201.5t-102 -170.5h-65q135 154 135 372t-135 372h65q66 -72 102 -170.5t36 -201.5z" />
    <glyph glyph-name="bracketleft.cap" horiz-adv-x="265" 
d="M125 625v-644h90v-50h-150v744h150v-50h-90z" />
    <glyph glyph-name="bracketright.cap" horiz-adv-x="265" 
d="M140 -19v644h-90v50h150v-744h-150v50h90z" />
    <glyph glyph-name="braceleft.cap" horiz-adv-x="279" 
d="M25 278v50h25q30 0 38.5 15t8.5 58v183q0 46 18 68.5t61 22.5h53v-50h-40q-31 0 -31 -37v-187q0 -85 -66 -98q66 -13 66 -98v-187q0 -37 31 -37h40v-50h-53q-43 0 -61 22.5t-18 68.5v183q0 43 -8.5 58t-38.5 15h-25z" />
    <glyph glyph-name="braceright.cap" horiz-adv-x="279" 
d="M254 328v-50h-25q-30 0 -38.5 -15t-8.5 -58v-183q0 -46 -18 -68.5t-61 -22.5h-53v50h40q31 0 31 37v187q0 85 66 98q-66 13 -66 98v187q0 37 -31 37h-40v50h53q43 0 61 -22.5t18 -68.5v-183q0 -43 8.5 -58t38.5 -15h25z" />
    <glyph glyph-name="at.cap" horiz-adv-x="755" 
d="M552 185q52 0 85.5 48t33.5 143q0 109 -70 177.5t-190 68.5q-144 0 -233.5 -92.5t-89.5 -236.5q0 -129 85 -206.5t211 -77.5q113 0 206 45l21 -35q-95 -57 -228 -57q-150 0 -249 89t-99 244q0 162 103.5 268t272.5 106q146 0 230 -81.5t84 -211.5q0 -116 -52 -178
t-128 -62q-39 0 -62.5 20.5t-29.5 52.5q-18 -33 -52 -53t-76 -20q-58 0 -93 37t-35 102q0 84 52 151.5t137 67.5q41 0 71 -18.5t41 -47.5l16 58h59l-61 -241q-8 -33 2.5 -46.5t37.5 -13.5zM466 303l7 26q13 51 -10.5 85t-71.5 34q-58 0 -94 -53t-36 -121q0 -87 75 -87
q42 0 78.5 30.5t51.5 85.5z" />
    <glyph glyph-name="Euro.lt" horiz-adv-x="600" 
d="M22 228v47h63q-1 13 -1 40q0 25 1 37h-63v47h68q19 112 84 177.5t162 65.5q107 0 170 -72t71 -189l-61 -3q-6 95 -51.5 153t-128.5 58q-75 0 -121 -50.5t-61 -139.5h208l-10 -47h-203q-1 -12 -1 -37q0 -27 1 -40h192l-10 -47h-176q15 -89 60.5 -138t120.5 -49
q83 0 127.5 56t52.5 155l61 -3q-9 -119 -71.5 -190t-169.5 -71q-96 0 -161 64.5t-84 175.5h-69z" />
    <glyph glyph-name="dollar.lt" horiz-adv-x="600" 
d="M59 226l56 5q3 -83 48.5 -133t119.5 -59v252l-55 11q-69 14 -109.5 55.5t-40.5 109.5q0 78 55 126t150 49v90h49v-93q93 -12 144.5 -70t51.5 -153l-57 -5q-1 74 -37.5 120t-101.5 58v-249l42 -8q85 -17 126 -55.5t41 -110.5q0 -79 -58 -126t-151 -51v-92h-49v93
q-101 9 -162.5 70.5t-61.5 165.5zM354 277l-22 4v-244q67 4 107.5 36.5t40.5 87.5q0 48 -29.5 75t-96.5 41zM137 469q0 -51 31.5 -76.5t96.5 -38.5l18 -4v243q-71 -1 -108.5 -33.5t-37.5 -90.5z" />
    <glyph glyph-name="cent.lt" horiz-adv-x="600" 
d="M282 -99v89q-86 8 -142 70.5t-56 156.5t56 156t142 71v99h49v-98q83 -6 131 -58.5t54 -130.5l-55 -4q-5 58 -39 96.5t-91 45.5v-354q58 6 91.5 43t40.5 101l53 -6q-6 -78 -54 -130.5t-131 -58.5v-88h-49zM146 217q0 -72 36.5 -119.5t99.5 -56.5v352q-63 -9 -99.5 -56.5
t-36.5 -119.5z" />
    <glyph glyph-name="sterling.lt" horiz-adv-x="600" 
d="M202 452q0 -47 22 -111h166v-48h-148q29 -81 29 -132q0 -19 -3 -39l20 -16t22 -17t20.5 -14.5t23.5 -14.5t23 -10.5t26 -7.5t27 -2q80 0 80 124l54 -2q0 -80 -36.5 -127t-100.5 -47q-34 0 -68 14t-53.5 28.5t-48.5 40.5q-30 -83 -114 -83q-43 0 -72 24t-29 68
q0 42 29 68.5t76 26.5q33 0 71 -19v5q0 55 -32 132h-99v48h78q-22 56 -22 111q0 85 49.5 137.5t138.5 52.5q91 0 143.5 -53.5t52.5 -148.5l-58 -3q0 76 -36 115t-102 39t-97.5 -38.5t-31.5 -100.5zM144 31q57 0 70 75q-38 26 -67 26q-26 0 -41 -13.5t-15 -38.5
q0 -22 15 -35.5t38 -13.5z" />
    <glyph glyph-name="yen.lt" horiz-adv-x="600" 
d="M100 272v48h138l-205 310h69l202 -310l196 310h67l-205 -310h138v-48h-170v-77h170v-48h-170v-147h-60v147h-170v48h170v77h-170z" />
    <glyph glyph-name="florin.lt" horiz-adv-x="600" 
d="M371 501l-26 -125h105v-46h-115l-60 -290q-13 -64 -43.5 -99.5t-89.5 -35.5q-11 0 -37 4v48q15 -3 27 -3q36 0 56 23t29 69l59 284h-79v46h88l28 131q12 59 46.5 95.5t89.5 36.5q21 0 45 -6v-46q-22 5 -36 5q-68 0 -87 -91z" />
    <glyph glyph-name="zero.lt" horiz-adv-x="600" 
d="M555 315q0 -157 -66.5 -242t-188.5 -85t-188.5 85t-66.5 242t66.5 242t188.5 85t188.5 -85t66.5 -242zM489 315q0 276 -189 276t-189 -276t189 -276t189 276z" />
    <glyph glyph-name="one.lt" horiz-adv-x="600" 
d="M118 0v53h163v444h-151v45h24q81 0 111.5 18t43.5 75h35v-582h158v-53h-384z" />
    <glyph glyph-name="two.lt" horiz-adv-x="600" 
d="M175 56h353v-56h-456v30l179 158q41 36 59 52.5t48 47.5t43 52.5t24 50.5t11 58q0 65 -36.5 103.5t-104.5 38.5q-71 0 -111 -42.5t-40 -119.5q0 -30 7 -59l-64 4q-6 30 -6 59q0 96 58 152.5t156 56.5q103 0 155 -53t52 -137q0 -41 -17 -81.5t-50 -79t-60.5 -65
t-69.5 -61.5z" />
    <glyph glyph-name="three.lt" horiz-adv-x="600" 
d="M459 170q0 58 -43 90.5t-111 32.5q-34 0 -64 -4v57q22 -3 64 -3q63 0 102.5 28t39.5 92q0 58 -38 93t-110 35q-75 0 -118 -45.5t-43 -128.5l-62 3q0 99 60.5 160.5t162.5 61.5q100 0 155.5 -47.5t55.5 -127.5q0 -59 -37 -100t-87 -49q58 -8 97 -50t39 -103
q0 -77 -60 -127t-161 -50q-110 0 -173.5 59.5t-63.5 164.5l62 -4q2 -82 48.5 -125.5t127.5 -43.5q72 0 114.5 34t42.5 97z" />
    <glyph glyph-name="four.lt" horiz-adv-x="600" 
d="M442 630v-401h125v-51h-125v-178h-62v178h-343v61l327 391h78zM380 572l-284 -343h284v343z" />
    <glyph glyph-name="five.lt" horiz-adv-x="600" 
d="M486 630v-59h-311q-1 -28 -10.5 -114.5t-15.5 -111.5q57 74 162 74q102 0 159 -60.5t57 -150.5q0 -97 -62 -158.5t-163 -61.5q-110 0 -171.5 65t-56.5 171l63 -6q-1 -83 42 -131.5t125 -48.5q74 0 116.5 45.5t42.5 123.5q0 71 -43 115t-116 44q-55 0 -94.5 -25.5
t-60.5 -65.5l-64 4q35 193 40 351h361z" />
    <glyph glyph-name="six.lt" horiz-adv-x="600" 
d="M323 592q-104 0 -153.5 -86t-46.5 -232q16 66 67.5 107.5t132.5 41.5q101 0 161.5 -60t60.5 -156q0 -98 -61 -158.5t-165 -60.5q-122 0 -187 83.5t-65 228.5q0 156 64.5 249t191.5 93q92 0 150 -50.5t65 -137.5l-61 -3q-22 141 -154 141zM147 205q0 -75 46.5 -120
t125.5 -45q76 0 120 45t44 120q0 76 -44.5 120t-123.5 44t-123.5 -44t-44.5 -120z" />
    <glyph glyph-name="seven.lt" horiz-adv-x="600" 
d="M447 572h-377v58h451v-31q-218 -230 -221 -599h-68q2 168 60.5 320t154.5 252z" />
    <glyph glyph-name="eight.lt" horiz-adv-x="600" 
d="M300 594q-67 0 -106.5 -33.5t-39.5 -96.5q0 -59 40 -92t106 -33t106 33t40 92q0 63 -39.5 96.5t-106.5 33.5zM300 289q-80 0 -122.5 -31.5t-42.5 -92.5t43 -95t122 -34t122 34t43 95t-42.5 92.5t-122.5 31.5zM300 -12q-108 0 -170 48t-62 130q0 59 39 99.5t94 50.5
q-51 18 -80.5 57t-29.5 94q0 80 59 127.5t150 47.5t150 -47.5t59 -127.5q0 -55 -29.5 -94t-80.5 -57q55 -10 94 -50.5t39 -99.5q0 -82 -62 -130t-170 -48z" />
    <glyph glyph-name="nine.lt" horiz-adv-x="600" 
d="M277 38q104 0 153.5 86t46.5 232q-16 -66 -67.5 -107.5t-132.5 -41.5q-101 0 -161.5 60t-60.5 156q0 98 61 158.5t165 60.5q122 0 187 -83.5t65 -228.5q0 -156 -64.5 -249t-191.5 -93q-92 0 -150 50.5t-65 137.5l61 3q22 -141 154 -141zM453 425q0 75 -46.5 120
t-125.5 45q-76 0 -120 -45t-44 -120q0 -76 44.5 -120t123.5 -44t123.5 44t44.5 120z" />
    <glyph glyph-name="period.tab" horiz-adv-x="300" 
d="M110 0v80h80v-80h-80z" />
    <glyph glyph-name="comma.tab" horiz-adv-x="300" 
d="M110 0v80h80v-81q0 -53 -15 -77t-65 -24v41q25 2 32 14t7 47h-39z" />
    <glyph glyph-name="colon.tab" horiz-adv-x="300" 
d="M110 0v80h80v-80h-80zM110 331v80h80v-80h-80z" />
    <glyph glyph-name="semicolon.tab" horiz-adv-x="300" 
d="M110 0v80h80v-81q0 -53 -15 -77t-65 -24v41q25 2 32 14t7 47h-39zM110 331v80h80v-80h-80z" />
    <glyph glyph-name="space.tab" horiz-adv-x="300" 
 />
    <glyph glyph-name="percent.lt" horiz-adv-x="800" 
d="M134 479q0 -118 82 -118t82 118t-82 118t-82 -118zM73 479q0 75 40.5 119t102.5 44t102.5 -44t40.5 -119t-40.5 -119t-102.5 -44t-102.5 44t-40.5 119zM667 151q0 118 -82 118t-82 -118t82 -118t82 118zM588 630l-320 -630h-55l320 630h55zM728 151q0 -75 -40.5 -119
t-102.5 -44t-102.5 44t-40.5 119t40.5 119t102.5 44t102.5 -44t40.5 -119z" />
    <glyph glyph-name="perthousand.lt" horiz-adv-x="1200" 
d="M170 479q0 -118 82 -118t82 118t-82 118t-82 -118zM109 479q0 75 40.5 119t102.5 44t102.5 -44t40.5 -119t-40.5 -119t-102.5 -44t-102.5 44t-40.5 119zM703 151q0 118 -82 118t-82 -118t82 -118t82 118zM764 151q0 -75 -40.5 -119t-102.5 -44t-102.5 44t-40.5 119
t40.5 119t102.5 44t102.5 -44t40.5 -119zM1030 151q0 118 -82 118t-82 -118t82 -118t82 118zM1091 151q0 -75 -40.5 -119t-102.5 -44t-102.5 44t-40.5 119t40.5 119t102.5 44t102.5 -44t40.5 -119zM624 630l-320 -630h-55l320 630h55z" />
    <glyph glyph-name="plus.lt" horiz-adv-x="600" 
d="M274 566h52v-228h227v-52h-227v-227h-52v227h-227v52h227v228z" />
    <glyph glyph-name="minus.lt" horiz-adv-x="600" 
d="M47 286v52h506v-52h-506z" />
    <glyph glyph-name="multiply.lt" horiz-adv-x="600" 
d="M265 308l-167 167l37 37l165 -169l165 169l37 -37l-167 -167l167 -167l-37 -37l-165 169l-165 -169l-37 37z" />
    <glyph glyph-name="divide.lt" horiz-adv-x="600" 
d="M47 286v52h506v-52h-506zM259 477v84h84v-84h-84zM259 63v84h84v-84h-84z" />
    <glyph glyph-name="equal.lt" horiz-adv-x="600" 
d="M46 211v53h507v-53h-507zM46 356v53h507v-53h-507z" />
    <glyph glyph-name="less.lt" horiz-adv-x="600" 
d="M107 279v63l386 219v-61l-339 -190l339 -189v-62z" />
    <glyph glyph-name="greater.lt" horiz-adv-x="600" 
d="M493 342v-63l-386 -220v62l338 189l-338 190v61z" />
    <glyph glyph-name="plusminus.lt" horiz-adv-x="600" 
d="M274 603h51v-200h232v-51h-232v-200h-51v200h-232v51h232v200zM42 46v52h515v-52h-515z" />
    <glyph glyph-name="lessequal.lt" horiz-adv-x="600" 
d="M106 46v52h387v-52h-387zM106 347v54l387 190v-56l-329 -161l329 -162v-56z" />
    <glyph glyph-name="greaterequal.lt" horiz-adv-x="600" 
d="M493 98v-52h-387v52h387zM493 401v-54l-387 -191v56l329 162l-329 161v56z" />
    <glyph glyph-name="notequal.lt" horiz-adv-x="600" 
d="M46 356v53h301l101 127h61l-102 -127h146v-53h-188l-73 -92h261v-53h-303l-99 -124h-61l99 124h-143v53h185l73 92h-258z" />
    <glyph glyph-name="approxequal.lt" horiz-adv-x="600" 
d="M46 329v54q72 46 137 46q43 0 115 -22t116 -22q69 0 139 45v-54q-69 -46 -139 -46q-44 0 -116 22t-115 22q-67 0 -137 -45zM46 193v55q70 45 137 45q43 0 115 -22t116 -22q69 0 139 45v-54q-70 -45 -139 -45q-44 0 -116 22t-115 22q-65 0 -137 -46z" />
    </font>
</defs>
</svg>
